<?xml version="1.0" encoding="UTF-8" standalone="no"?>
<svg
   xmlns:shaper="http://www.shapertools.com/namespaces/shaper"
   xmlns:dc="http://purl.org/dc/elements/1.1/"
   xmlns:cc="http://creativecommons.org/ns#"
   xmlns:rdf="http://www.w3.org/1999/02/22-rdf-syntax-ns#"
   xmlns:svg="http://www.w3.org/2000/svg"
   xmlns="http://www.w3.org/2000/svg"
   xmlns:sodipodi="http://sodipodi.sourceforge.net/DTD/sodipodi-0.dtd"
   xmlns:inkscape="http://www.inkscape.org/namespaces/inkscape"
   width="1500mm"
   height="830mm"
   viewBox="0 0 1500 830"
   version="1.1"
   id="svg8"
   inkscape:version="1.0.2 (e86c870879, 2021-01-15)"
   sodipodi:docname="Valovi_Chair_packed_March24.svg">
  <defs
     id="defs2" />
  <sodipodi:namedview
     id="base"
     pagecolor="#ffffff"
     bordercolor="#666666"
     borderopacity="1.0"
     inkscape:pageopacity="0.0"
     inkscape:pageshadow="2"
     inkscape:zoom="0.17721825"
     inkscape:cx="2471.4481"
     inkscape:cy="1439.6847"
     inkscape:document-units="mm"
     inkscape:current-layer="layer1"
     inkscape:document-rotation="0"
     showgrid="false"
     inkscape:window-width="1920"
     inkscape:window-height="1048"
     inkscape:window-x="0"
     inkscape:window-y="0"
     inkscape:window-maximized="1" />
  <metadata
     id="metadata5">
    <rdf:RDF>
      <cc:Work
         rdf:about="">
        <dc:format>image/svg+xml</dc:format>
        <dc:type
           rdf:resource="http://purl.org/dc/dcmitype/StillImage" />
        <dc:title></dc:title>
      </cc:Work>
    </rdf:RDF>
  </metadata>
  <g
     inkscape:label="Layer 1"
     inkscape:groupmode="layer"
     id="layer1">
    <path
       d="m 667.65189,647.2423 0.56206,-0.37025 0.34331,-0.34907 228.9879,-14.48906 -0.23079,1.94154 -0.38182,2.04028 -0.5203,1.99913 -0.65368,1.96541 -0.78676,1.92397 -0.91373,1.85136 -1.03981,1.79675 -1.15918,1.71344 -1.27056,1.63764 -1.38013,1.54365 -1.48191,1.44929 -1.57908,1.3419 -1.66306,1.23666 -1.74265,1.11829 -1.81711,0.99185 -1.87863,0.87282 -1.93522,0.74319 -1.98191,0.60286 -2.01532,0.47495 -2.04393,0.33144 -111.71278,14.40245 -145.31173,5.56614 -182.48218,6.98739 -1.97753,-51.7191 385.51747,-49.68136 1.96948,-0.31828 1.94636,-0.4491 1.91086,-0.56913 1.86974,-0.69935 1.82084,-0.82667 1.76254,-0.93813 1.69894,-1.04427 1.62477,-1.16273 1.54616,-1.2581 1.45938,-1.36575 1.37079,-1.45024 1.2694,-1.53682 1.16514,-1.6232 1.05954,-1.68641 0.94566,-1.75962 0.82707,-1.81443 0.7089,-1.86935 0.58321,-1.91108 0.45801,-1.94242 0.33043,-1.96856 0.20054,-1.98681 0.0687,-1.99218 -0.0616,-2.00271 -19.78804,-312.77159 -0.19387,-2.01311 -0.32767,-1.9874 -0.45778,-1.96693 -0.58542,-1.92848 -0.71264,-1.87966 -0.83526,-1.84141 -0.95421,-1.77484 -1.07055,-1.71345 -1.17832,-1.62673 -1.28676,-1.55802 -1.38654,-1.46116 -1.47872,-1.37224 -1.56808,-1.27579 -1.6462,-1.15918 -1.71958,-1.05292 -1.7876,-0.93416 -1.84491,-0.81047 -1.89204,-0.69503 -1.93636,-0.57185 -387.79456,-58.05299 -2.56559,-67.098758 152.99366,15.861828 0.27323,0.0531 -4.6293,22.9971 -0.39465,0.28885 -0.44582,0.50534 -0.33145,0.59145 -0.19897,0.64587 -0.14693,-1.44855 0.0764,0.67656 0.21501,0.63766 0.34516,0.57854 0.45551,0.49172 0.5498,0.39229 0.62011,0.26835 0.66123,0.12977 0.6743,-0.003 0.65846,-0.1421 0.61447,-0.28455 0.12572,-0.10138 8.73338,1.76157 0.0793,0.13677 0.45581,0.49934 0.552,0.38457 0.61741,0.26592 0.66433,0.14236 0.6738,-0.0129 0.65845,-0.14464 0.61197,-0.2819 0.54281,-0.40305 0.44582,-0.50534 0.32864,-0.59135 0.20156,-0.64597 0.0657,-0.6639 -0.0787,-0.67924 -0.21251,-0.63777 -0.25001,-0.42204 4.64913,-23.08827 427.89338,44.29274 3.5359,0.57271 3.5643,0.30295 3.5812,0.069 3.5737,-0.19509 3.5516,-0.43802 3.5133,-0.69253 3.4548,-0.94091 208.6213,-64.523239 1.3684,-0.227702 0.6906,-0.04452 1.3877,0.06641 1.3657,0.237044 1.3214,0.437769 0.6333,0.275464 1.2044,0.687781 1.0995,0.846853 0.9732,0.985884 0.8308,1.120704 0.6715,1.209419 0.499,1.293541 9.0125,29.128742 0.3106,1.29541 0.088,0.6659 0.051,1.32082 -0.1219,1.33278 -0.1276,0.64823 -0.3775,1.27799 -0.5432,1.20426 -0.6954,1.13509 -0.8388,1.03967 -0.9652,0.90774 -1.0762,0.78008 -1.1694,0.63392 -1.2399,0.47622 -14.5069,4.4924 -6.838,-22.06516 0.2067,-0.44205 0.1475,-0.66195 0.011,-0.67223 -0.1324,-0.66419 -0.2678,-0.62294 -0.3905,-0.5458 -0.4929,-0.45928 -0.5817,-0.34989 -0.6386,-0.21451 -0.6699,-0.0811 -0.672,0.0613 -0.6433,0.20507 -0.5897,0.32223 -0.5074,0.4482 -0.4034,0.53474 -0.066,0.14742 -8.5085,2.63537 -0.1353,-0.0838 -0.6386,-0.21452 -0.6698,-0.0812 -0.6719,0.0638 -0.6464,0.19247 -0.5867,0.33255 -0.5076,0.44822 -0.4057,0.53481 -0.2811,0.62053 -0.1504,0.65164 -0.01,0.67212 0.1324,0.66418 0.2653,0.62558 0.3903,0.54327 0.4957,0.45917 0.4231,0.25758 6.8349,22.04716 -16.7923,5.19732 -6.8323,-22.04727 0.2069,-0.43953 0.1476,-0.66195 0.011,-0.67223 -0.1324,-0.66419 -0.268,-0.62547 -0.3876,-0.54592 -0.4956,-0.45637 -0.5816,-0.3499 -0.6389,-0.21704 -0.6697,-0.0811 -0.672,0.0639 -0.6434,0.20253 -0.5896,0.32223 -0.5072,0.45101 -0.4032,0.53471 -0.066,0.14489 -8.5084,2.63792 -0.1354,-0.0838 -0.6386,-0.21706 -0.6699,-0.0786 -0.6718,0.0613 -0.6464,0.19247 -0.5893,0.33265 -0.5074,0.45074 -0.4033,0.53473 -0.2814,0.618 -0.1504,0.65165 -0.011,0.67223 0.1344,0.66415 0.2678,0.62547 0.3878,0.54591 0.4953,0.45639 0.4207,0.26047 6.8318,22.03693 -16.7902,5.18691 -6.8287,-22.02673 0.2067,-0.44204 0.1476,-0.65941 0.01,-0.67464 -0.1294,-0.66435 -0.2679,-0.62268 -0.3905,-0.5458 -0.4956,-0.45917 -0.5792,-0.34998 -0.6386,-0.21452 -0.6698,-0.0812 -0.672,0.0613 -0.6433,0.20507 -0.59,0.32226 -0.5072,0.44819 -0.4033,0.53473 -0.066,0.14742 -8.5083,2.63791 -0.1356,-0.0863 -0.6385,-0.21452 -0.6699,-0.0811 -0.6719,0.0638 -0.6464,0.19248 -0.5891,0.33264 -0.5073,0.44821 -0.4855,0.68528 -0.1981,0.47019 -0.1504,0.65164 -0.01,0.67211 0.1295,0.66434 0.2678,0.62548 0.3905,0.54579 0.4956,0.45638 0.4232,0.25758 6.8233,22.01662 -16.7898,5.19717 -6.8232,-22.01659 0.2043,-0.43941 0.15,-0.66205 0.011,-0.67223 -0.1325,-0.66419 -0.2678,-0.62547 -0.3905,-0.5458 -0.4928,-0.45649 -0.5817,-0.34989 -0.6387,-0.21705 -0.6698,-0.0811 -0.6719,0.0638 -0.6435,0.20253 -0.5898,0.32225 -0.5071,0.45099 -0.4059,0.53483 -0.064,0.14733 -8.511,2.63546 -0.1328,-0.0839 -0.6414,-0.21441 -0.6699,-0.0811 -0.6694,0.0613 -0.6465,0.19248 -0.5891,0.33264 -0.5072,0.45099 -0.4032,0.53472 -0.284,0.61812 -0.1479,0.65153 -0.011,0.67223 0.1325,0.66418 0.268,0.62549 0.3904,0.5458 0.4929,0.45648 0.4232,0.26037 6.8199,21.99605 -16.7897,5.1972 -6.8174,-21.99615 0.2067,-0.44205 0.1476,-0.65941 0.01,-0.67463 -0.1324,-0.66418 -0.2653,-0.62304 -0.3905,-0.54579 -0.4956,-0.45916 -0.5793,-0.34999 -0.6386,-0.21452 -0.6697,-0.0811 -0.6721,0.0614 -0.6434,0.20506 -0.5895,0.32223 -0.5075,0.44822 -0.4034,0.53473 -0.066,0.14741 -8.5108,2.63799 -0.1355,-0.0863 -0.6361,-0.21461 -0.6724,-0.081 -0.6719,0.0638 -0.6438,0.19238 -0.5895,0.33265 -0.5071,0.45075 -0.4856,0.68248 -0.1981,0.46995 -0.1505,0.65163 -0.011,0.67225 0.1325,0.66418 0.2679,0.62546 0.3904,0.54582 0.4929,0.45648 0.4231,0.25758 6.8145,21.98852 -16.7902,5.18687 -6.8114,-21.97829 0.2042,-0.43941 0.1501,-0.66204 0.01,-0.67212 -0.1325,-0.66419 -0.2678,-0.62548 -0.3877,-0.54591 -0.4956,-0.45638 -0.5792,-0.34997 -0.6386,-0.21706 -0.6699,-0.0811 -0.6718,0.0638 -0.6436,0.20253 -0.5896,0.32223 -0.5071,0.451 -0.4058,0.53482 -0.064,0.14735 -8.5111,2.6352 -0.1353,-0.0838 -0.6386,-0.21452 -0.6698,-0.0812 -0.672,0.0613 -0.6438,0.19493 -0.5895,0.33265 -0.5072,0.4482 -0.488,0.68259 -0.1981,0.47019 -0.1481,0.65155 -0.01,0.67224 0.1324,0.66419 0.268,0.62546 0.3878,0.54592 0.4957,0.45916 0.4232,0.25782 6.8085,21.96548 -18.9759,5.86735 -3.5059,0.95303 -3.5702,0.69471 -3.6081,0.44295 -3.6285,0.17687 -3.6332,-0.0746 -3.62,-0.33971 -107.20281,-13.27187 -2.05077,-0.18771 -2.06105,-0.0432 -2.0586,0.089 -2.04769,0.23337 -2.02685,0.3721 -1.99586,0.513 -1.96024,0.63315 -1.91085,0.77335 -1.85446,0.90031 -1.78776,1.0218 -1.71608,1.13523 -1.63669,1.25624 -1.54732,1.35881 -1.45014,1.46872 -1.35145,1.55035 -1.23919,1.64926 -1.12741,1.73039 -1.00883,1.79551 -0.88495,1.85812 -0.75629,1.91244 -0.6252,1.96436 -0.49163,2.0083 -0.35653,2.02908 -0.21625,2.04937 -0.0791,2.05202 0.0609,2.06471 2.16247,34.18621 -23.56657,1.49284 -0.38376,-0.30306 -0.60598,-0.30752 -0.65202,-0.16062 -0.67544,-0.0275 -0.66491,0.11438 -0.62639,0.24255 -0.56178,0.38064 -0.3638,0.34969 -0.46939,0.69993 -0.23454,0.62664 -0.0991,0.66771 0.041,0.68042 0.18254,0.65187 0.31187,0.58998 0.43071,0.52343 0.12311,0.0945 0.56137,8.89781 -0.11024,0.10845 -0.36071,0.57198 -0.23713,0.62648 -0.0965,0.66763 0.042,0.68037 0.18255,0.65187 0.31206,0.58998 0.43082,0.52341 0.5275,0.41399 0.60599,0.30752 0.65211,0.16316 0.67545,0.0275 0.66491,-0.11439 0.62639,-0.24255 0.56167,-0.38318 0.34591,-0.34647 23.56406,-1.49019 1.10989,17.54032 -23.56665,1.49029 -0.38367,-0.30051 -0.60608,-0.31007 -0.65201,-0.16062 -0.67545,-0.0275 -0.66491,0.11438 -0.6264,0.24256 -0.56176,0.38064 -0.47249,0.47789 -0.36031,0.5745 -0.23443,0.62385 -0.099,0.67051 0.0409,0.67786 0.18253,0.65188 0.31207,0.58997 0.43082,0.52368 0.1231,0.0945 0.56128,8.89781 -0.11024,0.10845 -0.3603,0.5745 -0.23704,0.62649 -0.0966,0.66762 0.0409,0.67787 0.18255,0.65187 0.31206,0.58998 0.43083,0.52367 0.5275,0.41398 0.60609,0.31006 0.65212,0.16062 0.67534,0.0275 0.66491,-0.11439 0.62639,-0.24254 0.56177,-0.38064 0.3458,-0.34926 23.56406,-1.4902 1.10989,17.5403 -23.56406,1.4902 -0.38615,-0.30042 -0.60599,-0.30754 -0.65221,-0.16316 -0.67535,-0.0275 -0.66492,0.11438 -0.62649,0.24256 -0.56166,0.38064 -0.3638,0.34969 -0.4693,0.70271 -0.23452,0.62665 -0.0991,0.66772 0.041,0.68064 0.18244,0.64931 0.31178,0.59032 0.43082,0.52342 0.12309,0.0944 0.56137,8.89774 -0.11014,0.11095 -0.3605,0.572 -0.23704,0.62651 -0.0965,0.66757 0.041,0.68063 0.18235,0.64941 0.31217,0.59271 0.43072,0.52092 0.52761,0.41655 0.60608,0.30746 0.65201,0.1606 0.67534,0.0272 0.66491,-0.11449 0.62649,-0.24251 0.56166,-0.38064 0.34583,-0.34896 23.56405,-1.49024 1.1099,17.54031 -23.56407,1.49012 -0.38616,-0.30036 -0.60599,-0.30757 -0.65221,-0.1631 -0.67533,-0.0272 -0.66491,0.11449 -0.6265,0.2425 -0.56156,0.38324 -0.36391,0.34716 -0.46929,0.70264 -0.23454,0.62642 -0.0991,0.66768 0.0411,0.68072 0.18244,0.64931 0.31188,0.59281 0.43072,0.52083 0.12309,0.097 0.56128,8.89525 -0.11015,0.11095 -0.3604,0.57199 -0.23704,0.62641 -0.0966,0.66768 0.041,0.68063 0.18244,0.6493 0.31197,0.59282 0.43072,0.52372 0.52751,0.41395 0.60609,0.30747 0.65211,0.1632 0.67543,0.0272 0.66482,-0.11448 0.62648,-0.24251 0.56157,-0.38324 0.34591,-0.34648 23.56398,-1.49271 1.10989,17.54029 -23.56397,1.49273 -0.38626,-0.30296 -0.60599,-0.30748 -0.65201,-0.1607 -0.67555,-0.0302 -0.66484,0.11649 -0.62648,0.24001 -0.56167,0.38324 -0.36381,0.34966 -0.46939,0.70024 -0.23454,0.62632 -0.0991,0.66777 0.041,0.68063 0.18244,0.6493 0.31218,0.59281 0.43081,0.52342 0.123,0.0944 0.56137,8.89775 -0.11023,0.10844 -0.36041,0.57199 -0.23454,0.62631 -0.0991,0.66778 0.042,0.68059 0.18255,0.6519 0.31206,0.58991 0.43083,0.52372 0.5275,0.41395 0.60599,0.30757 0.65211,0.1631 0.67543,0.0272 0.66491,-0.11449 0.6264,-0.2425 0.56166,-0.38315 0.34592,-0.34647 23.56406,-1.49022 1.10989,17.5403 -23.56406,1.49013 -0.38627,-0.30307 -0.60598,-0.30757 -0.65214,-0.1611 -0.67287,-0.0283 -0.66745,0.11355 -0.62646,0.24352 -0.56166,0.38064 -0.47258,0.478 -0.36032,0.57449 -0.23463,0.62392 -0.0989,0.67036 0.041,0.67803 0.18254,0.6519 0.31207,0.59001 0.43082,0.52362 0.12306,0.0934 0.56138,8.89775 -0.11028,0.10764 -0.36061,0.5745 -0.23443,0.62391 -0.0989,0.67037 0.041,0.67793 0.18244,0.6519 0.31186,0.59012 0.43082,0.52352 0.52751,0.41395 0.60599,0.30757 0.65213,0.1636 0.67547,0.0282 0.66495,-0.11349 0.62635,-0.24351 0.56167,-0.38063 0.34581,-0.34907 23.56416,-1.49014 1.10989,17.54031 -23.56416,1.49013 -0.38615,-0.30047 -0.606,-0.30757 -0.65213,-0.1637 -0.67297,-0.0283 -0.66745,0.11355 -0.62635,0.24362 -0.56177,0.38054 -0.47248,0.478 -0.36031,0.57449 -0.23464,0.62652 -0.0989,0.66776 0.041,0.67803 0.18254,0.6519 0.31177,0.59002 0.43083,0.52362 0.12305,0.0934 0.56127,8.89775 -0.11027,0.10765 -0.36031,0.57448 -0.23454,0.62642 -0.0991,0.66787 0.041,0.68053 0.18244,0.6493 0.31218,0.59271 0.43071,0.52092 0.52761,0.41655 0.60599,0.30747 0.65203,0.1612 0.67547,0.0282 0.66495,-0.11348 0.62895,-0.24371 0.55916,-0.38054 0.34582,-0.34907 23.56407,-1.49012 1.10989,17.54029 -23.56407,1.49013 -0.38616,-0.30047 -0.60599,-0.30757 -0.65223,-0.1637 -0.67287,-0.0283 -0.66746,0.11356 -0.62644,0.24361 -0.56157,0.38324 -0.3639,0.34715 -0.4693,0.70265 -0.23454,0.62652 -0.099,0.66787 0.041,0.68053 0.18244,0.6493 0.31188,0.59272 0.43072,0.52092 0.12316,0.096 0.56127,8.89516 -0.11017,0.11025 -0.36051,0.57179 -0.23454,0.62652 -0.0989,0.66787 0.041,0.68053 0.18234,0.6493 0.31217,0.59271 0.43073,0.52092 0.52759,0.41645 0.60609,0.30756 0.65203,0.16111 0.6755,0.0312 0.66487,-0.11549 0.62904,-0.24112 0.55908,-0.38304 0.34591,-0.34657 23.56396,-1.49272 1.10989,17.5403 -23.56396,1.49273 -0.38626,-0.30307 -0.606,-0.30757 -0.65223,-0.1636 -0.67286,-0.0283 -0.66745,0.11355 -0.62646,0.24352 -0.56157,0.38324 -0.47248,0.478 -0.36051,0.57188 -0.23454,0.62643 -0.0989,0.66787 0.041,0.68052 0.18244,0.64931 0.31218,0.5927 0.43081,0.52352 0.12307,0.0934 0.56118,8.89526 -0.11018,0.11015 -0.36042,0.57188 -0.23424,0.62641 -0.0991,0.66787 0.041,0.68053 0.18244,0.64931 0.31188,0.59271 0.43082,0.52352 0.5275,0.41395 0.60599,0.30747 0.65224,0.1637 0.67536,0.0282 0.66495,-0.11348 0.62895,-0.24361 0.55908,-0.38315 0.3459,-0.34656 23.56407,-1.49002 1.10979,17.5377 -23.56397,1.49262 -0.38625,-0.30296 -0.6035,-0.30767 -0.65463,-0.16111 -0.67287,-0.0283 -0.66746,0.11355 -0.62644,0.24362 -0.56167,0.38064 -0.3638,0.34975 -0.46939,0.70015 -0.23464,0.62643 -0.0989,0.66786 0.041,0.68053 0.18253,0.6519 0.31208,0.59011 0.43072,0.52353 0.12305,0.0934 0.56139,8.89785 -0.11027,0.10754 -0.36032,0.57448 -0.23463,0.62393 -0.099,0.67047 0.0409,0.67793 0.18255,0.6519 0.31207,0.59011 0.43072,0.52353 0.5275,0.41384 0.60609,0.30756 0.65213,0.16371 0.67547,0.0282 0.66485,-0.11348 0.62895,-0.2437 0.55917,-0.38045 0.34582,-0.34917 23.56405,-1.49002 1.35738,21.4452 -229.00858,14.48985 -0.38406,-0.31345 -0.6057,-0.29728 -0.65203,-0.1611 -0.67287,-0.0283 -0.66745,0.11355 -0.62645,0.2435 -0.56206,0.37035 -0.36341,0.36015 -0.46969,0.69235 -0.23683,0.63432 -0.0965,0.66767 0.0406,0.67024 0.18254,0.6519 0.31247,0.60039 0.43072,0.52363 0.12306,0.0934 0.56098,8.88746 -0.47009,0.68195 -0.23683,0.63441 -0.0989,0.67037 0.0436,0.66752 0.18254,0.65191 0.31247,0.60039 0.43082,0.52352 0.5275,0.41395 0.6056,0.29728 0.65252,0.17399 0.67547,0.0282 0.66495,-0.11348 z"
       shaper:pathType="exterior"
       shaper:cutDepth="0.7087"
       id="path139"
       inkscape:connector-curvature="0"
       style="fill:#000000;stroke-width:25.8191"
       sodipodi:nodetypes="cccccccccccccccccccccccccccccccccccccccccccccccccccccccccccccccccccccccccccccccccccccccccccccccccccccccccccccccccccccccccccccccccccccccccccccccccccccccccccccccccccccccccccccccccccccccccccccccccccccccccccccccccccccccccccccccccccccccccccccccccccccccccccccccccccccccccccccccccccccccccccccccccccccccccccccccccccccccccccccccccccccccccccccccccccccccccccccccccccccccccccccccccccccccccccccccccccccccccccccccccccccccccccccccccccccccccccccccccccccccccccccccccccccccccccccccccccccccccccccccccccccccccccccccccccccccccccccccccccccccccccccccccccccccccccccccccccccccccccccccccccccccccccccccccccccccccccccccccccccccccccccccccccccccccccccccccccccccccccccccccccccccccccccccccccccccccccccccccccccccccccccccccccccccccccccccccccccccccccccccccccccccccccccccccccccccccccccccccccccccccccccccccccccccccccccccccccc" />
    <path
       d="m 1028.5961,538.0719 v -30.4872 l 0.097,-1.3838 0.1194,-0.6842 0.3744,-1.3349 0.5524,-1.27291 0.7203,-1.1851 0.8753,-1.0766 1.0148,-0.9476 1.1333,-0.8004 0.6043,-0.3382 1.2728,-0.5551 1.3347,-0.3718 1.3762,-0.191 9.6822,-0.01 V 515.509 l -0.328,0.3666 -0.3383,0.5836 -0.2083,0.6429 -0.069,0.6687 0.069,0.6713 0.2083,0.6429 0.3383,0.5835 0.328,0.3847 0.6687,0.5138 0.617,0.2737 0.6584,0.1419 h 0.6764 l 0.6583,-0.1419 0.617,-0.2737 0.5474,-0.3976 0.1041,-0.1161 h 8.9102 l 0.1041,0.1161 0.5474,0.3976 0.617,0.2737 0.6583,0.1419 h 0.6764 l 0.6584,-0.1419 0.617,-0.2737 0.5448,-0.3976 0.4519,-0.5009 0.3383,-0.5835 0.2083,-0.6429 0.069,-0.6713 -0.069,-0.6687 -0.2083,-0.6429 -0.3383,-0.5836 -0.3279,-0.3666 v -18.08631 l 14.0713,-0.01 55.4801,-9.4601 55.9913,-5.6931 56.2495,-1.9029 56.2495,1.9029 55.9939,5.6931 55.4801,9.4601 h 14.0739 v 18.09401 l -0.3304,0.3666 -0.3357,0.5836 -0.209,0.6429 -0.072,0.6687 0.072,0.6713 0.209,0.6429 0.3357,0.5835 0.4518,0.5009 0.5474,0.3976 0.6145,0.2737 0.6609,0.1419 h 0.6739 l 0.661,-0.1419 0.617,-0.2737 0.5448,-0.3976 0.1059,-0.1161 h 8.9076 l 0.1059,0.1161 0.5448,0.3976 0.617,0.2737 0.6584,0.1419 h 0.6765 l 0.6584,-0.1419 0.617,-0.2737 0.5448,-0.3976 0.4544,-0.5009 0.3357,-0.5835 0.209,-0.6429 0.07,-0.6713 -0.07,-0.6687 -0.209,-0.6429 -0.3357,-0.5836 -0.3304,-0.3666 v -18.09401 l 9.6563,0.021 0.661,0.067 1.3064,0.2582 1.2574,0.4286 0.6068,0.2737 1.1515,0.6661 1.0534,0.8081 0.488,0.4544 0.8753,0.9992 0.3873,0.5422 0.6635,1.1516 0.5112,1.22891 0.3434,1.2833 0.173,1.3193 0.023,31.1508 -0.096,1.3839 -0.2814,1.358 -0.2119,0.6636 -0.5525,1.2729 -0.7203,1.1851 -0.4183,0.5525 -0.9476,1.0147 -1.0766,0.8753 -1.1851,0.7203 -1.2729,0.5525 -0.6635,0.2091 -1.3555,0.284 -0.692,0.07 -26.5472,0.023 -60.4219,-11.2726 -61.0905,-6.7904 -61.4237,-2.267 -61.4236,2.267 -61.088,6.7904 -60.4244,11.2726 -26.5163,-0.021 -1.3192,-0.173 -1.2833,-0.346 -1.2288,-0.5086 -1.1516,-0.6635 -1.0562,-0.8108 -0.9398,-0.9398 -0.8082,-1.0534 -0.6662,-1.1541 -0.5088,-1.2264 -0.193,-0.6378 -0.2581,-1.3038 z"
       shaper:pathType="exterior"
       shaper:cutDepth="0.7087"
       id="path153"
       inkscape:connector-curvature="0"
       style="fill:#000000;stroke-width:25.8191" />
    <path
       d="m 1146.3837,254.85108 -0.5627,0.36937 -0.3439,0.34845 -229.01024,14.10283 0.23406,-1.94112 0.38526,-2.03965 0.52367,-1.99821 0.65699,-1.96431 0.79001,-1.92267 0.91685,-1.8498 1.04284,-1.79499 1.16206,-1.7115 1.27332,-1.63548 1.38273,-1.54129 1.48435,-1.44682 1.58134,-1.33928 1.66515,-1.23382 1.74453,-1.1153 1.8188,-0.98883 1.88009,-0.86964 1.93646,-0.73994 1.98293,-0.59953 2.01612,-0.47156 2.04449,-0.32793 111.73509,-14.21406 145.3211,-5.31912 182.4945,-6.68002 1.8903,51.72243 -385.60136,49.03123 -1.96989,0.31498 -1.947,0.44577 -1.91168,0.56593 -1.87083,0.6962 -1.82212,0.82359 -1.76403,0.93516 -1.70061,1.04134 -1.62663,1.16007 -1.54819,1.25541 -1.46159,1.36333 -1.37315,1.44794 -1.27193,1.53465 -1.16778,1.62127 -1.06232,1.6846 -0.94857,1.75796 -0.83007,1.81305 -0.71202,1.86816 -0.5864,1.91006 -0.46126,1.94165 -0.33371,1.96801 -0.20388,1.98651 -0.0721,1.99205 0.0582,2.00277 19.2602,312.80456 0.19046,2.01344 0.3243,1.98795 0.45446,1.9677 0.58213,1.92947 0.70941,1.88086 0.83213,1.84282 0.95116,1.77644 1.0676,1.71526 1.17551,1.62872 1.28408,1.56018 1.38398,1.46351 1.4763,1.37473 1.5659,1.27843 1.6441,1.16196 1.7178,1.05582 1.7859,0.93717 1.8434,0.81359 1.8907,0.69823 1.9353,0.57512 387.6969,58.70675 2.4525,67.103 -152.9675,-16.11976 -0.2732,-0.0536 4.6681,-22.98926 0.3952,-0.28818 0.4466,-0.50459 0.3325,-0.59089 0.2,-0.64553 0.144,1.44884 -0.076,-0.67663 -0.2141,-0.63802 -0.3442,-0.57913 -0.4546,-0.49248 -0.5492,-0.39321 -0.6196,-0.2694 -0.661,-0.13089 -0.6743,10e-4 -0.6587,0.14099 -0.615,0.28351 -0.1259,0.10117 -8.7304,-1.7763 -0.079,-0.1369 -0.455,-0.50011 -0.5513,-0.3855 -0.617,-0.26695 -0.6641,-0.14348 -0.6738,0.0117 -0.6587,0.14354 -0.6125,0.28087 -0.5434,0.40213 -0.4467,0.50459 -0.3297,0.59079 -0.2026,0.64563 -0.067,0.66379 0.078,0.67934 0.2114,0.63812 0.2493,0.42247 -4.6881,23.0804 -427.81631,-45.01425 -3.5349,-0.57867 -3.56379,-0.30895 -3.58107,-0.075 -3.57401,0.18906 -3.55221,0.43203 -3.51448,0.6866 -3.45633,0.93509 -208.72992,64.17137 -1.36885,0.22541 -0.69077,0.0434 -1.38748,-0.0688 -1.36525,-0.23934 -1.32073,-0.44 -0.63283,-0.27653 -1.20328,-0.68981 -1.09803,-0.84871 -0.97143,-0.98752 -0.82894,-1.12211 -0.66949,-1.21054 -0.49692,-1.29438 -8.96327,-29.14391 -0.30839,-1.29592 -0.0879,-0.66601 -0.0483,-1.32094 0.12413,-1.33257 0.12882,-0.64802 0.37955,-1.27735 0.54518,-1.20333 0.69743,-1.13393 0.84046,-1.03824 0.96679,-0.90612 1.07743,-0.77825 1.17049,-0.63194 1.2408,-0.47414 14.51432,-4.46793 6.80088,22.07664 -0.20753,0.44171 -0.14865,0.6617 -0.0111,0.67217 0.13104,0.66444 0.26678,0.62339 0.38954,0.54646 0.49211,0.4601 0.58115,0.35087 0.63822,0.21559 0.66969,0.0823 0.67211,-0.0602 0.64373,-0.20398 0.59013,-0.32124 0.50826,-0.44735 0.40418,-0.53405 0.0658,-0.14728 8.51288,-2.62102 0.13524,0.084 0.63822,0.21559 0.66969,0.0823 0.67202,-0.0627 0.64673,-0.19139 0.58721,-0.33154 0.50826,-0.44737 0.40673,-0.53413 0.28208,-0.62005 0.15157,-0.65139 0.008,-0.67208 -0.13104,-0.66444 -0.26434,-0.62602 -0.38943,-0.54392 -0.49491,-0.46 -0.42272,-0.2583 -6.79762,-22.05865 16.80105,-5.16899 6.79506,22.05875 -0.20762,0.43917 -0.14865,0.6617 -0.0111,0.67217 0.13103,0.66444 0.26688,0.62593 0.38675,0.54656 0.4948,0.45721 0.58114,0.35087 0.63833,0.21813 0.6697,0.0823 0.67202,-0.0627 0.64382,-0.20144 0.59013,-0.32124 0.5079,-0.45014 0.40418,-0.53404 0.0659,-0.14474 8.51279,-2.62357 0.13524,0.084 0.63831,0.21813 0.6696,0.0797 0.67211,-0.0602 0.64673,-0.19139 0.58975,-0.33164 0.50817,-0.44989 0.40418,-0.53405 0.28244,-0.61752 0.15157,-0.65139 0.0111,-0.67218 -0.13358,-0.66434 -0.26687,-0.62592 -0.38676,-0.54657 -0.49454,-0.45722 -0.42028,-0.26118 -6.79469,-22.04841 16.7989,-5.15859 6.79174,22.0382 -0.20752,0.44171 -0.14875,0.65916 -0.008,0.67462 0.1285,0.66454 0.26678,0.62313 0.38954,0.54646 0.49491,0.46 0.57861,0.35096 0.63822,0.21559 0.66969,0.0823 0.67211,-0.0602 0.64373,-0.20399 0.59039,-0.32124 0.508,-0.44734 0.40419,-0.53405 0.0658,-0.14728 8.51279,-2.62356 0.13533,0.0865 0.63822,0.21559 0.6697,0.0823 0.67201,-0.0627 0.64674,-0.19139 0.58975,-0.33164 0.508,-0.44735 0.48662,-0.68447 0.19887,-0.46986 0.15158,-0.65138 0.008,-0.67207 -0.12849,-0.66454 -0.26688,-0.62592 -0.38953,-0.54646 -0.49481,-0.45722 -0.42271,-0.25829 -6.7862,-22.02809 16.7985,-5.16886 6.78616,22.02806 -0.20508,0.43907 -0.15119,0.6618 -0.0111,0.67217 0.13104,0.66444 0.26688,0.62593 0.38953,0.54646 0.49201,0.45731 0.58115,0.35087 0.63831,0.21813 0.66969,0.0823 0.67202,-0.0627 0.64382,-0.20145 0.59039,-0.32124 0.5079,-0.45014 0.40673,-0.53414 0.0633,-0.14718 8.51544,-2.62112 0.1327,0.0841 0.64102,0.21549 0.66969,0.0823 0.66957,-0.0601 0.64674,-0.19139 0.58975,-0.33164 0.50789,-0.45014 0.40419,-0.53404 0.28497,-0.61763 0.14903,-0.65129 0.0111,-0.67217 -0.13103,-0.66444 -0.26688,-0.62593 -0.38954,-0.54645 -0.49201,-0.45732 -0.42282,-0.26108 -6.78287,-22.00752 16.79849,-5.16889 6.78028,22.00761 -0.20753,0.44171 -0.14874,0.65916 -0.008,0.67461 0.13103,0.66444 0.26425,0.62349 0.38954,0.54645 0.49491,0.46001 0.57861,0.35096 0.63822,0.21559 0.66969,0.0823 0.67211,-0.0602 0.64373,-0.20399 0.59013,-0.32124 0.50826,-0.44735 0.40418,-0.53405 0.0658,-0.14728 8.51535,-2.62364 0.13533,0.0865 0.63568,0.21569 0.67223,0.0822 0.67203,-0.0627 0.64418,-0.1913 0.59001,-0.33165 0.50791,-0.44989 0.48673,-0.68167 0.19888,-0.46961 0.15157,-0.65138 0.0111,-0.67218 -0.13104,-0.66444 -0.26688,-0.62592 -0.38953,-0.54647 -0.49201,-0.45731 -0.42272,-0.25829 -6.77741,-21.99997 16.79887,-5.15856 6.77444,21.98974 -0.20508,0.43907 -0.15119,0.66179 -0.008,0.67208 0.13104,0.66444 0.26688,0.62592 0.38674,0.54657 0.4948,0.45721 0.57861,0.35095 0.63831,0.21814 0.66969,0.0823 0.67202,-0.0627 0.64382,-0.20145 0.59014,-0.32123 0.50789,-0.45014 0.40673,-0.53414 0.0633,-0.14719 8.51546,-2.62085 0.13524,0.084 0.63822,0.21559 0.66969,0.0823 0.67211,-0.0602 0.64411,-0.19383 0.59001,-0.33166 0.508,-0.44735 0.48926,-0.68177 0.19887,-0.46986 0.14904,-0.65129 0.011,-0.67218 -0.13103,-0.66444 -0.26688,-0.62592 -0.387,-0.54656 -0.4949,-0.46 -0.42273,-0.25854 -6.77141,-21.97693 18.98574,-5.83533 3.50754,-0.94713 3.57126,-0.68867 3.60887,-0.4369 3.62892,-0.17075 3.63295,0.0807 3.61941,0.34581 107.18027,13.45261 2.05045,0.19117 2.06098,0.0467 2.05875,-0.0856 2.04807,-0.22989 2.02748,-0.36869 1.99672,-0.50964 1.96131,-0.62984 1.91214,-0.77012 1.85597,-0.89718 1.78949,-1.01879 1.71799,-1.13233 1.63881,-1.25348 1.5496,-1.3562 1.45262,-1.46628 1.35406,-1.54806 1.24197,-1.64717 1.13033,-1.72849 1.01186,-1.7938 0.88808,-1.85664 0.7595,-1.91115 0.62852,-1.96331 0.49501,-2.00747 0.35995,-2.02847 0.21971,-2.04901 0.0826,-2.05187 -0.0575,-2.06481 -2.10482,-34.18982 23.56905,-1.45309 0.38325,0.3037 0.60547,0.30854 0.65174,0.16173 0.6754,0.0287 0.6651,-0.11327 0.6268,-0.24149 0.56241,-0.3797 0.36439,-0.34907 0.47058,-0.69913 0.23559,-0.62624 0.10018,-0.66756 -0.0399,-0.68047 -0.18144,-0.65218 -0.31087,-0.59051 -0.42983,-0.52415 -0.12294,-0.0947 -0.54637,-8.89874 0.11042,-0.10824 0.36167,-0.57137 0.23819,-0.62609 0.0976,-0.66746 -0.0409,-0.68044 -0.18144,-0.65218 -0.31108,-0.5905 -0.42993,-0.52414 -0.5268,-0.41488 -0.60547,-0.30854 -0.65184,-0.16426 -0.67539,-0.0286 -0.66511,0.11326 -0.6268,0.2415 -0.56231,0.38223 -0.3465,0.34589 -23.56655,1.45046 -1.08031,-17.54217 23.56914,-1.45056 0.38316,0.30117 0.60556,0.31108 0.65174,0.16173 0.6754,0.0286 0.66511,-0.11327 0.6268,-0.24149 0.5624,-0.3797 0.47329,-0.47709 0.36129,-0.5739 0.23548,-0.62345 0.10009,-0.67034 -0.0398,-0.67794 -0.18144,-0.65218 -0.31108,-0.5905 -0.42994,-0.5244 -0.12294,-0.0947 -0.54627,-8.89875 0.11042,-0.10824 0.36128,-0.5739 0.23809,-0.62608 0.0977,-0.66747 -0.0398,-0.67793 -0.18144,-0.65218 -0.31107,-0.59051 -0.42994,-0.52439 -0.5268,-0.41487 -0.60557,-0.31108 -0.65184,-0.16172 -0.6753,-0.0286 -0.66511,0.11326 -0.62679,0.2415 -0.56241,0.37969 -0.3464,0.34867 -23.56655,1.45046 -1.08031,-17.54213 23.56655,-1.45047 0.38565,0.30107 0.60548,0.30855 0.65193,0.16426 0.6753,0.0287 0.6651,-0.11327 0.6269,-0.2415 0.56231,-0.37969 0.36439,-0.34908 0.47048,-0.70192 0.23559,-0.62624 0.10018,-0.66756 -0.0399,-0.68073 -0.18135,-0.64964 -0.31078,-0.59077 -0.42993,-0.52414 -0.12294,-0.0947 -0.54637,-8.89874 0.11032,-0.11078 0.36148,-0.57137 0.23809,-0.62608 0.0976,-0.66746 -0.0399,-0.68073 -0.18125,-0.64964 -0.31118,-0.5933 -0.42983,-0.5216 -0.5269,-0.4174 -0.60557,-0.30855 -0.65174,-0.16173 -0.6753,-0.0286 -0.66511,0.11326 -0.6269,0.2415 -0.5623,0.37969 -0.34641,0.34843 -23.56655,1.45046 -1.08031,-17.54214 23.56655,-1.45046 0.38565,0.30107 0.60547,0.30855 0.65194,0.16426 0.67529,0.0287 0.66511,-0.11327 0.6269,-0.24149 0.56221,-0.38223 0.36449,-0.34655 0.47048,-0.70192 0.23559,-0.62599 0.10019,-0.66755 -0.0399,-0.68073 -0.18135,-0.64964 -0.31088,-0.59331 -0.42983,-0.5216 -0.12293,-0.0972 -0.54628,-8.89615 0.11032,-0.11078 0.36138,-0.57136 0.23809,-0.62609 0.0977,-0.66746 -0.0399,-0.68073 -0.18135,-0.64964 -0.31098,-0.59331 -0.42984,-0.5244 -0.5268,-0.41486 -0.60557,-0.30854 -0.65184,-0.16426 -0.67539,-0.0287 -0.66501,0.11327 -0.6269,0.2415 -0.56221,0.38222 -0.3465,0.34588 -23.56646,1.453 -1.08031,-17.54214 23.56645,-1.453 0.38575,0.30362 0.60547,0.30854 0.65174,0.16172 0.6755,0.0312 0.66501,-0.11576 0.62689,-0.23896 0.56232,-0.38223 0.36439,-0.34907 0.47057,-0.6994 0.2356,-0.62598 0.10018,-0.66755 -0.0399,-0.68074 -0.18135,-0.64964 -0.31117,-0.59329 -0.42993,-0.52415 -0.12284,-0.0947 -0.54637,-8.89872 0.11042,-0.10824 0.36137,-0.57137 0.23559,-0.62598 0.10019,-0.66756 -0.0409,-0.6807 -0.18144,-0.65217 -0.31108,-0.59051 -0.42993,-0.5244 -0.52681,-0.41486 -0.60547,-0.30855 -0.65184,-0.16426 -0.67539,-0.0286 -0.66511,0.11327 -0.6268,0.24149 -0.56231,0.38223 -0.3465,0.34588 -23.56655,1.45047 -1.08031,-17.54216 23.56655,-1.45036 0.38575,0.3037 0.60547,0.30857 0.65186,0.16222 0.67283,0.0295 0.66764,-0.11235 0.62686,-0.24251 0.56231,-0.37967 0.47339,-0.4772 0.36128,-0.57385 0.23568,-0.62352 0.1,-0.67024 -0.0398,-0.67805 -0.18144,-0.6522 -0.31108,-0.5906 -0.42993,-0.52428 -0.1229,-0.0936 -0.54638,-8.89873 0.11045,-0.10749 0.36158,-0.57387 0.23549,-0.62351 0.1,-0.67024 -0.0398,-0.67804 -0.18134,-0.65221 -0.31088,-0.59061 -0.42993,-0.52427 -0.5268,-0.4148 -0.60548,-0.30857 -0.65185,-0.16477 -0.67542,-0.0295 -0.66515,0.11226 -0.62676,0.24251 -0.56231,0.37967 -0.3464,0.34854 -23.56665,1.45037 -1.08031,-17.54215 23.56665,-1.45037 0.38565,0.30111 0.60548,0.30857 0.65185,0.16477 0.67293,0.0295 0.66764,-0.11236 0.62676,-0.24251 0.56241,-0.37967 0.47329,-0.47719 0.36128,-0.57385 0.23569,-0.6261 0.10008,-0.66765 -0.0398,-0.67804 -0.18144,-0.6522 -0.31078,-0.59062 -0.42994,-0.52427 -0.12289,-0.0936 -0.54628,-8.89875 0.11045,-0.10748 0.36128,-0.57385 0.23559,-0.62609 0.10018,-0.66766 -0.0399,-0.68062 -0.18135,-0.64961 -0.31117,-0.5932 -0.42984,-0.52168 -0.5269,-0.41739 -0.60547,-0.30857 -0.65176,-0.16222 -0.67543,-0.0295 -0.66514,0.11227 -0.62936,0.2426 -0.55981,0.37958 -0.3464,0.34854 -23.56655,1.45036 -1.08032,-17.54214 23.56656,-1.45036 0.38565,0.3011 0.60547,0.30857 0.65196,0.16476 0.67282,0.0295 0.66765,-0.11236 0.62686,-0.24251 0.56221,-0.38226 0.36448,-0.34661 0.47048,-0.70185 0.2356,-0.62609 0.10018,-0.66766 -0.0399,-0.68063 -0.18134,-0.64961 -0.31088,-0.59321 -0.42984,-0.52168 -0.12299,-0.0962 -0.54628,-8.89615 0.11035,-0.11002 0.36148,-0.57127 0.23559,-0.62608 0.10008,-0.66765 -0.0399,-0.68064 -0.18125,-0.64961 -0.31117,-0.5932 -0.42984,-0.52168 -0.5269,-0.41738 -0.60557,-0.30857 -0.65176,-0.16223 -0.67543,-0.0322 -0.66505,0.11476 -0.62945,0.24006 -0.55972,0.38217 -0.3465,0.34596 -23.56645,1.45295 -1.08032,-17.54215 23.56646,-1.45295 0.38575,0.30369 0.60547,0.30858 0.65196,0.16476 0.67282,0.0296 0.66765,-0.11236 0.62686,-0.24251 0.56221,-0.38225 0.47329,-0.4772 0.36148,-0.57126 0.23559,-0.62609 0.10008,-0.66766 -0.0399,-0.68062 -0.18134,-0.64961 -0.31118,-0.5932 -0.42993,-0.52427 -0.1229,-0.0936 -0.54618,-8.89617 0.11035,-0.11003 0.36138,-0.57126 0.23529,-0.62608 0.10018,-0.66765 -0.0399,-0.68063 -0.18135,-0.64961 -0.31087,-0.59321 -0.42994,-0.52427 -0.5268,-0.41479 -0.60547,-0.30857 -0.65195,-0.16476 -0.67533,-0.0295 -0.66514,0.11227 -0.62936,0.24261 -0.55972,0.38215 -0.34649,0.34596 -23.56656,1.45036 -1.08022,-17.53956 23.56646,-1.45295 0.38575,0.30369 0.60298,0.30866 0.65435,0.16214 0.67283,0.0295 0.66764,-0.11235 0.62686,-0.24252 0.56231,-0.37967 0.36439,-0.3492 0.47058,-0.69929 0.23569,-0.62609 0.10008,-0.66765 -0.0399,-0.68063 -0.18144,-0.65221 -0.31108,-0.5906 -0.42983,-0.52427 -0.1229,-0.0937 -0.54638,-8.89873 0.11045,-0.10748 0.36128,-0.57385 0.23569,-0.62353 0.10008,-0.67024 -0.0398,-0.67805 -0.18144,-0.6522 -0.31108,-0.5906 -0.42983,-0.52428 -0.5268,-0.41479 -0.60558,-0.30856 -0.65185,-0.16478 -0.67543,-0.0294 -0.66504,0.11227 -0.62936,0.2426 -0.55981,0.37957 -0.3464,0.34853 -23.56655,1.45036 -1.32121,-21.44755 229.0309,-14.10358 0.3836,0.31411 0.6052,0.29827 0.6517,0.16223 0.6729,0.0296 0.6676,-0.11236 0.6269,-0.24251 0.5626,-0.36936 0.3641,-0.35951 0.4708,-0.69155 0.2379,-0.63392 0.098,-0.66756 -0.039,-0.6703 -0.1815,-0.6522 -0.3114,-0.60094 -0.4298,-0.52428 -0.1229,-0.0936 -0.546,-8.88842 0.4712,-0.68121 0.2379,-0.63393 0.1,-0.67024 -0.042,-0.6676 -0.1815,-0.6522 -0.3114,-0.60094 -0.43,-0.52426 -0.5268,-0.4148 -0.6051,-0.29827 -0.6522,-0.17517 -0.6754,-0.0295 -0.6652,0.11227 z"
       shaper:pathType="exterior"
       shaper:cutDepth="0.7087"
       id="path139-3"
       inkscape:connector-curvature="0"
       style="fill:#000000;stroke-width:25.8191"
       sodipodi:nodetypes="cccccccccccccccccccccccccccccccccccccccccccccccccccccccccccccccccccccccccccccccccccccccccccccccccccccccccccccccccccccccccccccccccccccccccccccccccccccccccccccccccccccccccccccccccccccccccccccccccccccccccccccccccccccccccccccccccccccccccccccccccccccccccccccccccccccccccccccccccccccccccccccccccccccccccccccccccccccccccccccccccccccccccccccccccccccccccccccccccccccccccccccccccccccccccccccccccccccccccccccccccccccccccccccccccccccccccccccccccccccccccccccccccccccccccccccccccccccccccccccccccccccccccccccccccccccccccccccccccccccccccccccccccccccccccccccccccccccccccccccccccccccccccccccccccccccccccccccccccccccccccccccccccccccccccccccccccccccccccccccccccccccccccccccccccccccccccccccccccccccccccccccccccccccccccccccccccccccccccccccccccccccccccccccccccccccccccccccccccccccccccccccccccccccccccccccccccccc" />
    <path
       d="m 1013.994,449.41664 458.5317,-0.021 1.3193,-0.1727 0.6481,-0.1524 1.2574,-0.426 0.6067,-0.2763 1.1516,-0.6635 0.5396,-0.3873 1.0018,-0.8779 0.8752,-0.9993 0.7385,-1.1051 0.5886,-1.1928 0.426,-1.2599 0.1524,-0.6479 0.173,-1.3167 0.018,-22.7962 v -3.7231 l -11.2752,-60.4218 -6.7879,-61.0906 -2.2669,-61.4236 2.2669,-61.4237 6.7879,-61.088 11.2752,-60.424417 -0.023,-26.5162 -0.173,-1.3194 -0.1524,-0.648 -0.426,-1.26 -0.5887,-1.1903 -0.7384,-1.105 -0.8752,-1.0018 -1.0018,-0.8753 -1.1051,-0.7384 -1.1928,-0.588701 -1.2574,-0.4286 -1.3039,-0.2582 -0.6635,-0.064 h -45.3848 l -413.1469,-0.021 v 19.134601 h 229.457 l 0.364,-0.3305 0.5835,-0.3357 0.6429,-0.209 0.6713,-0.07 0.6713,0.07 0.6403,0.209 0.5861,0.3357 0.5009,0.4544 0.395,0.5448 0.2763,0.6171 0.1395,0.6584 v 0.6764 l -0.1395,0.65839 -0.2763,0.6171 -0.395,0.5447 -0.1161,0.106 v 8.9076 l 0.1161,0.1059 0.395,0.5447 0.2763,0.6171 0.1395,0.661 v 0.6739 l -0.1395,0.6609 -0.2763,0.6145 -0.395,0.5474 -0.5009,0.4518 -0.5861,0.3357 -0.6403,0.209 -0.6713,0.072 -0.6713,-0.072 -0.6429,-0.209 -0.5835,-0.3357 -0.364,-0.3304 h -229.4569 v 19.1784 l 404.5775,0.023 1.3555,0.1834 0.6661,0.16 1.2936,0.4544 1.2186,0.6222 0.5758,0.3719 1.0689,0.852 0.9476,0.9915 0.4182,0.5421 0.7281,1.1593 0.5654,1.2471 0.3899,1.3142 0.2119,1.3529 0.039,0.6842 -0.064,1.3684 -8.8792,60.610417 -4.4022,60.4141 v 60.5768 l 4.4022,60.4141 8.8792,60.6129 0.064,1.3683 -0.039,0.6843 -0.2119,1.3528 -0.173,0.6609 -0.4802,1.2832 -0.3021,0.6144 -0.7281,1.1618 -0.8752,1.0508 -1.0096,0.9243 -1.1257,0.7824 -1.2186,0.6223 -0.6403,0.2489 -16.5656,0.364 -1.3581,0.1828 -389.3286,0.023 v 19.1346 h 229.4568 l 0.364,-0.3279 0.5835,-0.3384 0.6429,-0.2083 0.6713,-0.069 0.6713,0.069 0.6403,0.2083 0.5861,0.3384 0.5009,0.4518 0.395,0.5448 0.2763,0.617 0.1395,0.6609 v 0.6739 l -0.1395,0.6584 -0.2763,0.6172 -0.395,0.5473 -0.1161,0.1042 v 8.9102 l 0.1161,0.1041 0.395,0.5474 0.2763,0.6169 0.1395,0.6584 v 0.6764 l -0.1395,0.6584 -0.2763,0.6169 -0.5112,0.6688 -0.3847,0.3279 -0.5861,0.3384 -0.6403,0.2082 -0.6713,0.069 -0.6713,-0.069 -0.6429,-0.2082 -0.5835,-0.3384 -0.3641,-0.3279 h -229.4568 z"
       shaper:pathType="exterior"
       shaper:cutDepth="0.7087"
       id="path143-6"
       inkscape:connector-curvature="0"
       style="fill:#000000;stroke-width:25.8191" />
    <path
       d="m 1026.7189,649.88763 v -30.4872 l 0.097,-1.3838 0.1194,-0.6842 0.3744,-1.3349 0.5524,-1.27291 0.7203,-1.1851 0.8753,-1.0766 1.0148,-0.9476 1.1333,-0.8004 0.6043,-0.3382 1.2728,-0.5551 1.3347,-0.3718 1.3762,-0.191 9.6822,-0.01 v 18.07591 l -0.328,0.3666 -0.3383,0.5836 -0.2083,0.6429 -0.069,0.6687 0.069,0.6713 0.2083,0.6429 0.3383,0.5835 0.328,0.3847 0.6687,0.5138 0.617,0.2737 0.6584,0.1419 h 0.6764 l 0.6583,-0.1419 0.617,-0.2737 0.5474,-0.3976 0.1041,-0.1161 h 8.9102 l 0.1041,0.1161 0.5474,0.3976 0.617,0.2737 0.6583,0.1419 h 0.6764 l 0.6584,-0.1419 0.617,-0.2737 0.5448,-0.3976 0.4519,-0.5009 0.3383,-0.5835 0.2083,-0.6429 0.069,-0.6713 -0.069,-0.6687 -0.2083,-0.6429 -0.3383,-0.5836 -0.3279,-0.3666 v -18.08631 l 14.0713,-0.01 55.4801,-9.4601 55.9913,-5.6931 56.2495,-1.9029 56.2495,1.9029 55.9939,5.6931 55.4801,9.4601 h 14.0739 v 18.09401 l -0.3304,0.3666 -0.3357,0.5836 -0.209,0.6429 -0.072,0.6687 0.072,0.6713 0.209,0.6429 0.3357,0.5835 0.4518,0.5009 0.5474,0.3976 0.6145,0.2737 0.6609,0.1419 h 0.6739 l 0.661,-0.1419 0.617,-0.2737 0.5448,-0.3976 0.1059,-0.1161 h 8.9076 l 0.1059,0.1161 0.5448,0.3976 0.617,0.2737 0.6584,0.1419 h 0.6765 l 0.6584,-0.1419 0.617,-0.2737 0.5448,-0.3976 0.4544,-0.5009 0.3357,-0.5835 0.209,-0.6429 0.07,-0.6713 -0.07,-0.6687 -0.209,-0.6429 -0.3357,-0.5836 -0.3304,-0.3666 v -18.09401 l 9.6563,0.021 0.661,0.067 1.3064,0.2582 1.2574,0.4286 0.6068,0.2737 1.1515,0.6661 1.0534,0.8081 0.488,0.4544 0.8753,0.9992 0.3873,0.5422 0.6635,1.1516 0.5112,1.22891 0.3434,1.2833 0.173,1.3193 0.023,31.1508 -0.096,1.3839 -0.2814,1.358 -0.2119,0.6636 -0.5525,1.2729 -0.7203,1.1851 -0.4183,0.5525 -0.9476,1.0147 -1.0766,0.8753 -1.1851,0.7203 -1.2729,0.5525 -0.6635,0.2091 -1.3555,0.284 -0.692,0.07 -26.5472,0.023 -60.4219,-11.2726 -61.0905,-6.7904 -61.4237,-2.267 -61.4236,2.267 -61.088,6.7904 -60.4244,11.2726 -26.5163,-0.021 -1.3192,-0.173 -1.2833,-0.346 -1.2288,-0.5086 -1.1516,-0.6635 -1.0562,-0.8108 -0.9398,-0.9398 -0.8082,-1.0534 -0.6662,-1.1541 -0.5088,-1.2264 -0.193,-0.6378 -0.2581,-1.3038 z"
       shaper:pathType="exterior"
       shaper:cutDepth="0.7087"
       id="path153-3"
       inkscape:connector-curvature="0"
       style="fill:#000000;stroke-width:25.8191" />
    <path
       d="m 547.51494,60.879485 3.19441,-30.319386 0.24146,-1.36602 0.19043,-0.667923 0.51221,-1.288323 0.68273,-1.208024 0.84051,-1.103104 0.98328,-0.978962 1.10851,-0.836054 1.21092,-0.677249 0.63641,-0.273021 1.32396,-0.418682 1.36631,-0.229906 1.38864,-0.04575 9.62995,1.004541 -1.89397,17.976413 -0.3646,0.330215 -0.39759,0.544941 -0.27452,0.617536 -0.13868,0.657789 -0.002,0.674835 0.13979,0.661186 0.2753,0.615735 0.28589,0.41695 0.61118,0.581037 0.58493,0.336842 0.63991,0.210105 0.67267,0.07087 0.66955,-0.07214 0.64228,-0.207545 0.58605,-0.338056 0.11569,-0.104553 8.86115,0.933597 0.0914,0.126369 0.50273,0.452767 0.58493,0.336842 0.6398,0.210094 0.67268,0.07087 0.66965,-0.07213 0.64228,-0.207546 0.58346,-0.338328 0.50189,-0.450793 0.39758,-0.544842 0.27452,-0.617535 0.13895,-0.660376 0.001,-0.672249 -0.13979,-0.661186 -0.27529,-0.615834 -0.28768,-0.398939 1.89505,-17.986756 13.9949,1.464425 56.16593,-3.594904 56.27961,0.204922 56.13926,4.001314 55.7405,7.786165 55.08917,11.528721 54.1835,15.221151 13.99643,1.474642 -1.89586,17.994413 -0.367,0.329963 -0.395,0.545214 -0.27521,0.617462 -0.14167,0.657476 10e-4,0.675149 0.14049,0.661259 0.27271,0.615463 0.39683,0.545482 0.50273,0.452767 0.58244,0.33658 0.64239,0.210367 0.67019,0.07061 0.67223,-0.07186 0.64228,-0.207546 0.58346,-0.338328 0.11748,-0.104365 8.85857,0.933326 0.0932,0.126557 0.50014,0.452494 0.58492,0.336842 0.63991,0.210105 0.67278,0.07088 0.66964,-0.07213 0.64228,-0.207545 0.58346,-0.338328 0.50439,-0.450531 0.39499,-0.545114 0.27521,-0.617463 0.13995,-0.66027 4.5e-4,-0.672354 -0.14049,-0.66126 -0.2727,-0.615562 -0.29017,-0.399201 1.89586,-17.994413 9.60095,1.032658 0.65034,0.135889 1.27216,0.393662 1.20557,0.557989 0.57478,0.335773 1.07537,0.783086 0.96293,0.914026 0.4377,0.50303 0.76579,1.085413 0.32836,0.579796 0.53918,1.214782 0.37963,1.275708 0.20704,1.312217 0.0338,1.330165 -3.24107,30.981744 -0.24047,1.36622 -0.42214,1.32104 -0.28026,0.63775 -0.68284,1.208 -0.8405,1.1031 -0.47389,0.50563 -1.0487,0.90983 -1.16239,0.75768 -1.25405,0.59216 -1.32378,0.41609 -0.68176,0.13842 -1.3778,0.14041 -0.69552,-0.003 -26.40349,-2.7587 -58.90724,-17.541361 -60.04275,-13.153994 -60.84806,-8.690406 -61.32303,-4.181353 -61.46324,0.352313 -61.27292,4.879371 -26.36814,-2.799223 -1.29382,-0.310272 -1.23998,-0.478557 -1.16875,-0.634553 -1.07574,-0.78051 -0.96543,-0.917004 -0.83615,-1.033098 -0.69338,-1.132284 -0.54161,-1.217551 -0.3775,-1.27296 -0.12511,-0.654512 -0.12007,-1.323667 z"
       shaper:pathType="exterior"
       shaper:cutDepth="0.7087"
       id="path153-3-5"
       inkscape:connector-curvature="0"
       style="fill:#000000;stroke-width:25.8191" />
    <path
       d="m -32.887,385.90519 v -30.4872 l 0.097,-1.3838 0.1194,-0.6842 0.3744,-1.3349 0.5524,-1.27291 0.7203,-1.1851 0.8753,-1.0766 1.0148,-0.9476 1.1333,-0.8004 0.6043,-0.3382 1.2728,-0.5551 1.3347,-0.3718 1.3762,-0.191 9.6822,-0.01 v 18.07591 l -0.328,0.3666 -0.3383,0.5836 -0.2083,0.6429 -0.069,0.6687 0.069,0.6713 0.2083,0.6429 0.3383,0.5835 0.328,0.3847 0.6687,0.5138 0.617,0.2737 0.6584,0.1419 h 0.6764 l 0.6583,-0.1419 0.617,-0.2737 0.5474,-0.3976 0.1041,-0.1161 h 8.9102 l 0.1041,0.1161 0.5474,0.3976 0.617,0.2737 0.6583,0.1419 h 0.6764 l 0.6584,-0.1419 0.617,-0.2737 0.5448,-0.3976 0.4519,-0.5009 0.3383,-0.5835 0.2083,-0.6429 0.069,-0.6713 -0.069,-0.6687 -0.2083,-0.6429 -0.3383,-0.5836 -0.3279,-0.3666 v -18.08631 l 14.0713,-0.01 55.4801,-9.4601 55.9913,-5.6931 56.2495,-1.9029 56.2495,1.9029 55.9939,5.6931 55.4801,9.4601 h 14.0739 v 18.09401 l -0.3304,0.3666 -0.3357,0.5836 -0.209,0.6429 -0.072,0.6687 0.072,0.6713 0.209,0.6429 0.3357,0.5835 0.4518,0.5009 0.5474,0.3976 0.6145,0.2737 0.6609,0.1419 h 0.6739 l 0.661,-0.1419 0.617,-0.2737 0.5448,-0.3976 0.1059,-0.1161 h 8.9076 l 0.1059,0.1161 0.5448,0.3976 0.617,0.2737 0.6584,0.1419 h 0.6765 l 0.6584,-0.1419 0.617,-0.2737 0.5448,-0.3976 0.4544,-0.5009 0.3357,-0.5835 0.209,-0.6429 0.07,-0.6713 -0.07,-0.6687 -0.209,-0.6429 -0.3357,-0.5836 -0.3304,-0.3666 v -18.09401 l 9.6563,0.021 0.661,0.067 1.3064,0.2582 1.2574,0.4286 0.6068,0.2737 1.1515,0.6661 1.0534,0.8081 0.488,0.4544 0.8753,0.9992 0.3873,0.5422 0.6635,1.1516 0.5112,1.22891 0.3434,1.2833 0.173,1.3193 0.023,31.1508 -0.096,1.3839 -0.2814,1.358 -0.2119,0.6636 -0.5525,1.2729 -0.7203,1.1851 -0.4183,0.5525 -0.9476,1.0147 -1.0766,0.8753 -1.1851,0.7203 -1.2729,0.5525 -0.6635,0.2091 -1.3555,0.284 -0.692,0.07 -26.5472,0.023 -60.4219,-11.2726 -61.0905,-6.7904 -61.4237,-2.267 -61.4236,2.267 -61.088,6.7904 -60.4244,11.2726 -26.5163,-0.021 -1.3192,-0.173 -1.2833,-0.346 -1.2288,-0.5086 -1.1516,-0.6635 -1.0562,-0.8108 -0.9398,-0.9398 -0.8082,-1.0534 -0.6662,-1.1541 -0.5088,-1.2264 -0.193,-0.6378 -0.2581,-1.3038 z"
       shaper:pathType="exterior"
       shaper:cutDepth="0.7087"
       id="path153-36"
       inkscape:connector-curvature="0"
       style="fill:#000000;stroke-width:25.8191" />
    <path
       d="m -34.7642,497.72092 v -30.4872 l 0.097,-1.3838 0.1194,-0.6842 0.3744,-1.3349 0.5524,-1.27291 0.7203,-1.1851 0.8753,-1.0766 1.0148,-0.9476 1.1333,-0.8004 0.6043,-0.3382 1.2728,-0.5551 1.3347,-0.3718 1.3762,-0.191 9.6822,-0.01 v 18.07591 l -0.328,0.3666 -0.3383,0.5836 -0.2083,0.6429 -0.069,0.6687 0.069,0.6713 0.2083,0.6429 0.3383,0.5835 0.328,0.3847 0.6687,0.5138 0.617,0.2737 0.6584,0.1419 h 0.6764 l 0.6583,-0.1419 0.617,-0.2737 0.5474,-0.3976 0.1041,-0.1161 h 8.9102 l 0.1041,0.1161 0.5474,0.3976 0.617,0.2737 0.6583,0.1419 h 0.6764 l 0.6584,-0.1419 0.617,-0.2737 0.5448,-0.3976 0.4519,-0.5009 0.3383,-0.5835 0.2083,-0.6429 0.069,-0.6713 -0.069,-0.6687 -0.2083,-0.6429 -0.3383,-0.5836 -0.3279,-0.3666 v -18.08631 l 14.0713,-0.01 55.4801,-9.4601 55.9913,-5.6931 56.2495,-1.9029 56.2495,1.9029 55.9939,5.6931 55.4801,9.4601 h 14.0739 v 18.09401 l -0.3304,0.3666 -0.3357,0.5836 -0.209,0.6429 -0.072,0.6687 0.072,0.6713 0.209,0.6429 0.3357,0.5835 0.4518,0.5009 0.5474,0.3976 0.6145,0.2737 0.6609,0.1419 h 0.6739 l 0.661,-0.1419 0.617,-0.2737 0.5448,-0.3976 0.1059,-0.1161 h 8.9076 l 0.1059,0.1161 0.5448,0.3976 0.617,0.2737 0.6584,0.1419 h 0.6765 l 0.6584,-0.1419 0.617,-0.2737 0.5448,-0.3976 0.4544,-0.5009 0.3357,-0.5835 0.209,-0.6429 0.07,-0.6713 -0.07,-0.6687 -0.209,-0.6429 -0.3357,-0.5836 -0.3304,-0.3666 v -18.09401 l 9.6563,0.021 0.661,0.067 1.3064,0.2582 1.2574,0.4286 0.6068,0.2737 1.1515,0.6661 1.0534,0.8081 0.488,0.4544 0.8753,0.9992 0.3873,0.5422 0.6635,1.1516 0.5112,1.22891 0.3434,1.2833 0.173,1.3193 0.023,31.1508 -0.096,1.3839 -0.2814,1.358 -0.2119,0.6636 -0.5525,1.2729 -0.7203,1.1851 -0.4183,0.5525 -0.9476,1.0147 -1.0766,0.8753 -1.1851,0.7203 -1.2729,0.5525 -0.6635,0.2091 -1.3555,0.284 -0.692,0.07 -26.5472,0.023 -60.4219,-11.2726 -61.0905,-6.7904 -61.4237,-2.267 -61.4236,2.267 -61.088,6.7904 -60.4244,11.2726 -26.5163,-0.021 -1.3192,-0.173 -1.2833,-0.346 -1.2288,-0.5086 -1.1516,-0.6635 -1.0562,-0.8108 -0.9398,-0.9398 -0.8082,-1.0534 -0.6662,-1.1541 -0.5088,-1.2264 -0.193,-0.6378 -0.2581,-1.3038 z"
       shaper:pathType="exterior"
       shaper:cutDepth="0.7087"
       id="path153-3-7"
       inkscape:connector-curvature="0"
       style="fill:#000000;stroke-width:25.8191" />
    <path
       d="m 361.25976,357.53856 v -30.4872 l 0.097,-1.3838 0.1194,-0.6842 0.3744,-1.3349 0.5524,-1.27291 0.7203,-1.1851 0.8753,-1.0766 1.0148,-0.9476 1.1333,-0.8004 0.6043,-0.3382 1.2728,-0.5551 1.3347,-0.3718 1.3762,-0.191 9.6822,-0.01 v 18.07591 l -0.328,0.3666 -0.3383,0.5836 -0.2083,0.6429 -0.069,0.6687 0.069,0.6713 0.2083,0.6429 0.3383,0.5835 0.328,0.3847 0.6687,0.5138 0.617,0.2737 0.6584,0.1419 h 0.6764 l 0.6583,-0.1419 0.617,-0.2737 0.5474,-0.3976 0.1041,-0.1161 h 8.9102 l 0.1041,0.1161 0.5474,0.3976 0.617,0.2737 0.6583,0.1419 h 0.6764 l 0.6584,-0.1419 0.617,-0.2737 0.5448,-0.3976 0.4519,-0.5009 0.3383,-0.5835 0.2083,-0.6429 0.069,-0.6713 -0.069,-0.6687 -0.2083,-0.6429 -0.3383,-0.5836 -0.3279,-0.3666 v -18.08631 l 14.0713,-0.01 55.4801,-9.4601 55.9913,-5.6931 56.2495,-1.9029 56.2495,1.9029 55.9939,5.6931 55.4801,9.4601 h 14.0739 v 18.09401 l -0.3304,0.3666 -0.3357,0.5836 -0.209,0.6429 -0.072,0.6687 0.072,0.6713 0.209,0.6429 0.3357,0.5835 0.4518,0.5009 0.5474,0.3976 0.6145,0.2737 0.6609,0.1419 h 0.6739 l 0.661,-0.1419 0.617,-0.2737 0.5448,-0.3976 0.1059,-0.1161 h 8.9076 l 0.1059,0.1161 0.5448,0.3976 0.617,0.2737 0.6584,0.1419 h 0.6765 l 0.6584,-0.1419 0.617,-0.2737 0.5448,-0.3976 0.4544,-0.5009 0.3357,-0.5835 0.209,-0.6429 0.07,-0.6713 -0.07,-0.6687 -0.209,-0.6429 -0.3357,-0.5836 -0.3304,-0.3666 v -18.09401 l 9.6563,0.021 0.661,0.067 1.3064,0.2582 1.2574,0.4286 0.6068,0.2737 1.1515,0.6661 1.0534,0.8081 0.488,0.4544 0.8753,0.9992 0.3873,0.5422 0.6635,1.1516 0.5112,1.22891 0.3434,1.2833 0.173,1.3193 0.023,31.1508 -0.096,1.3839 -0.2814,1.358 -0.2119,0.6636 -0.5525,1.2729 -0.7203,1.1851 -0.4183,0.5525 -0.9476,1.0147 -1.0766,0.8753 -1.1851,0.7203 -1.2729,0.5525 -0.6635,0.2091 -1.3555,0.284 -0.692,0.07 -26.5472,0.023 -60.4219,-11.2726 -61.0905,-6.7904 -61.4237,-2.267 -61.4236,2.267 -61.088,6.7904 -60.4244,11.2726 -26.5163,-0.021 -1.3192,-0.173 -1.2833,-0.346 -1.2288,-0.5086 -1.1516,-0.6635 -1.0562,-0.8108 -0.9398,-0.9398 -0.8082,-1.0534 -0.6662,-1.1541 -0.5088,-1.2264 -0.193,-0.6378 -0.2581,-1.3038 z"
       shaper:pathType="exterior"
       shaper:cutDepth="0.7087"
       id="path153-5"
       inkscape:connector-curvature="0"
       style="fill:#000000;stroke-width:25.8191" />
    <path
       d="m 359.38256,469.35429 v -30.4872 l 0.097,-1.3838 0.1194,-0.6842 0.3744,-1.3349 0.5524,-1.27291 0.7203,-1.1851 0.8753,-1.0766 1.0148,-0.9476 1.1333,-0.8004 0.6043,-0.3382 1.2728,-0.5551 1.3347,-0.3718 1.3762,-0.191 9.6822,-0.01 v 18.07591 l -0.328,0.3666 -0.3383,0.5836 -0.2083,0.6429 -0.069,0.6687 0.069,0.6713 0.2083,0.6429 0.3383,0.5835 0.328,0.3847 0.6687,0.5138 0.617,0.2737 0.6584,0.1419 h 0.6764 l 0.6583,-0.1419 0.617,-0.2737 0.5474,-0.3976 0.1041,-0.1161 h 8.9102 l 0.1041,0.1161 0.5474,0.3976 0.617,0.2737 0.6583,0.1419 h 0.6764 l 0.6584,-0.1419 0.617,-0.2737 0.5448,-0.3976 0.4519,-0.5009 0.3383,-0.5835 0.2083,-0.6429 0.069,-0.6713 -0.069,-0.6687 -0.2083,-0.6429 -0.3383,-0.5836 -0.3279,-0.3666 v -18.08631 l 14.0713,-0.01 55.4801,-9.4601 55.9913,-5.6931 56.2495,-1.9029 56.2495,1.9029 55.9939,5.6931 55.4801,9.4601 h 14.0739 v 18.09401 l -0.3304,0.3666 -0.3357,0.5836 -0.209,0.6429 -0.072,0.6687 0.072,0.6713 0.209,0.6429 0.3357,0.5835 0.4518,0.5009 0.5474,0.3976 0.6145,0.2737 0.6609,0.1419 h 0.6739 l 0.661,-0.1419 0.617,-0.2737 0.5448,-0.3976 0.1059,-0.1161 h 8.9076 l 0.1059,0.1161 0.5448,0.3976 0.617,0.2737 0.6584,0.1419 h 0.6765 l 0.6584,-0.1419 0.617,-0.2737 0.5448,-0.3976 0.4544,-0.5009 0.3357,-0.5835 0.209,-0.6429 0.07,-0.6713 -0.07,-0.6687 -0.209,-0.6429 -0.3357,-0.5836 -0.3304,-0.3666 v -18.09401 l 9.6563,0.021 0.661,0.067 1.3064,0.2582 1.2574,0.4286 0.6068,0.2737 1.1515,0.6661 1.0534,0.8081 0.488,0.4544 0.8753,0.9992 0.3873,0.5422 0.6635,1.1516 0.5112,1.22891 0.3434,1.2833 0.173,1.3193 0.023,31.1508 -0.096,1.3839 -0.2814,1.358 -0.2119,0.6636 -0.5525,1.2729 -0.7203,1.1851 -0.4183,0.5525 -0.9476,1.0147 -1.0766,0.8753 -1.1851,0.7203 -1.2729,0.5525 -0.6635,0.2091 -1.3555,0.284 -0.692,0.07 -26.5472,0.023 -60.4219,-11.2726 -61.0905,-6.7904 -61.4237,-2.267 -61.4236,2.267 -61.088,6.7904 -60.4244,11.2726 -26.5163,-0.021 -1.3192,-0.173 -1.2833,-0.346 -1.2288,-0.5086 -1.1516,-0.6635 -1.0562,-0.8108 -0.9398,-0.9398 -0.8082,-1.0534 -0.6662,-1.1541 -0.5088,-1.2264 -0.193,-0.6378 -0.2581,-1.3038 z"
       shaper:pathType="exterior"
       shaper:cutDepth="0.7087"
       id="path153-3-3"
       inkscape:connector-curvature="0"
       style="fill:#000000;stroke-width:25.8191" />
    <path
       d="m -25.4221,147.02836 v -30.4872 l 0.097,-1.3838 0.1194,-0.6842 0.3744,-1.3349 0.5524,-1.27291 0.7203,-1.1851 0.8753,-1.0766 1.0148,-0.9476 1.1333,-0.8004 0.6043,-0.3382 1.2728,-0.5551 1.3347,-0.3718 1.3762,-0.191 9.6822,-0.01 v 18.07591 l -0.328,0.3666 -0.3383,0.5836 -0.2083,0.6429 -0.069,0.6687 0.069,0.6713 0.2083,0.6429 0.3383,0.5835 0.328,0.3847 0.6687,0.5138 0.617,0.2737 0.6584,0.1419 h 0.6764 l 0.6583,-0.1419 0.617,-0.2737 0.5474,-0.3976 0.1041,-0.1161 h 8.9102 l 0.1041,0.1161 0.5474,0.3976 0.617,0.2737 0.6583,0.1419 h 0.6764 l 0.6584,-0.1419 0.617,-0.2737 0.5448,-0.3976 0.4519,-0.5009 0.3383,-0.5835 0.2083,-0.6429 0.069,-0.6713 -0.069,-0.6687 -0.2083,-0.6429 -0.3383,-0.5836 -0.3279,-0.3666 v -18.08631 l 14.0713,-0.01 55.4801,-9.4601 55.9913,-5.6931 56.2495,-1.9029 56.2495,1.9029 55.9939,5.6931 55.4801,9.4601 h 14.0739 v 18.09401 l -0.3304,0.3666 -0.3357,0.5836 -0.209,0.6429 -0.072,0.6687 0.072,0.6713 0.209,0.6429 0.3357,0.5835 0.4518,0.5009 0.5474,0.3976 0.6145,0.2737 0.6609,0.1419 h 0.6739 l 0.661,-0.1419 0.617,-0.2737 0.5448,-0.3976 0.1059,-0.1161 h 8.9076 l 0.1059,0.1161 0.5448,0.3976 0.617,0.2737 0.6584,0.1419 h 0.6765 l 0.6584,-0.1419 0.617,-0.2737 0.5448,-0.3976 0.4544,-0.5009 0.3357,-0.5835 0.209,-0.6429 0.07,-0.6713 -0.07,-0.6687 -0.209,-0.6429 -0.3357,-0.5836 -0.3304,-0.3666 v -18.09401 l 9.6563,0.021 0.661,0.067 1.3064,0.2582 1.2574,0.4286 0.6068,0.2737 1.1515,0.6661 1.0534,0.8081 0.488,0.4544 0.8753,0.9992 0.3873,0.5422 0.6635,1.1516 0.5112,1.22891 0.3434,1.2833 0.173,1.3193 0.023,31.1508 -0.096,1.3839 -0.2814,1.358 -0.2119,0.6636 -0.5525,1.2729 -0.7203,1.1851 -0.4183,0.5525 -0.9476,1.0147 -1.0766,0.8753 -1.1851,0.7203 -1.2729,0.5525 -0.6635,0.2091 -1.3555,0.284 -0.692,0.07 -26.5472,0.023 -60.4219,-11.2726 -61.0905,-6.7904 -61.4237,-2.267 -61.4236,2.267 -61.088,6.7904 -60.4244,11.2726 -26.5163,-0.021 -1.3192,-0.173 -1.2833,-0.346 -1.2288,-0.5086 -1.1516,-0.6635 -1.0562,-0.8108 -0.9398,-0.9398 -0.8082,-1.0534 -0.6662,-1.1541 -0.5088,-1.2264 -0.193,-0.6378 -0.2581,-1.3038 z"
       shaper:pathType="exterior"
       shaper:cutDepth="0.7087"
       id="path153-56"
       inkscape:connector-curvature="0"
       style="fill:#000000;stroke-width:25.8191" />
    <path
       d="m -27.2993,258.84409 v -30.4872 l 0.097,-1.3838 0.1194,-0.6842 0.3744,-1.3349 0.5524,-1.27291 0.7203,-1.1851 0.8753,-1.0766 1.0148,-0.9476 1.1333,-0.8004 0.6043,-0.3382 1.2728,-0.5551 1.3347,-0.3718 1.3762,-0.191 9.6822,-0.01 v 18.07591 l -0.328,0.3666 -0.3383,0.5836 -0.2083,0.6429 -0.069,0.6687 0.069,0.6713 0.2083,0.6429 0.3383,0.5835 0.328,0.3847 0.6687,0.5138 0.617,0.2737 0.6584,0.1419 h 0.6764 l 0.6583,-0.1419 0.617,-0.2737 0.5474,-0.3976 0.1041,-0.1161 h 8.9102 l 0.1041,0.1161 0.5474,0.3976 0.617,0.2737 0.6583,0.1419 h 0.6764 l 0.6584,-0.1419 0.617,-0.2737 0.5448,-0.3976 0.4519,-0.5009 0.3383,-0.5835 0.2083,-0.6429 0.069,-0.6713 -0.069,-0.6687 -0.2083,-0.6429 -0.3383,-0.5836 -0.3279,-0.3666 v -18.08631 l 14.0713,-0.01 55.4801,-9.4601 55.9913,-5.6931 56.2495,-1.9029 56.2495,1.9029 55.9939,5.6931 55.4801,9.4601 h 14.0739 v 18.09401 l -0.3304,0.3666 -0.3357,0.5836 -0.209,0.6429 -0.072,0.6687 0.072,0.6713 0.209,0.6429 0.3357,0.5835 0.4518,0.5009 0.5474,0.3976 0.6145,0.2737 0.6609,0.1419 h 0.6739 l 0.661,-0.1419 0.617,-0.2737 0.5448,-0.3976 0.1059,-0.1161 h 8.9076 l 0.1059,0.1161 0.5448,0.3976 0.617,0.2737 0.6584,0.1419 h 0.6765 l 0.6584,-0.1419 0.617,-0.2737 0.5448,-0.3976 0.4544,-0.5009 0.3357,-0.5835 0.209,-0.6429 0.07,-0.6713 -0.07,-0.6687 -0.209,-0.6429 -0.3357,-0.5836 -0.3304,-0.3666 v -18.09401 l 9.6563,0.021 0.661,0.067 1.3064,0.2582 1.2574,0.4286 0.6068,0.2737 1.1515,0.6661 1.0534,0.8081 0.488,0.4544 0.8753,0.9992 0.3873,0.5422 0.6635,1.1516 0.5112,1.22891 0.3434,1.2833 0.173,1.3193 0.023,31.1508 -0.096,1.3839 -0.2814,1.358 -0.2119,0.6636 -0.5525,1.2729 -0.7203,1.1851 -0.4183,0.5525 -0.9476,1.0147 -1.0766,0.8753 -1.1851,0.7203 -1.2729,0.5525 -0.6635,0.2091 -1.3555,0.284 -0.692,0.07 -26.5472,0.023 -60.4219,-11.2726 -61.0905,-6.7904 -61.4237,-2.267 -61.4236,2.267 -61.088,6.7904 -60.4244,11.2726 -26.5163,-0.021 -1.3192,-0.173 -1.2833,-0.346 -1.2288,-0.5086 -1.1516,-0.6635 -1.0562,-0.8108 -0.9398,-0.9398 -0.8082,-1.0534 -0.6662,-1.1541 -0.5088,-1.2264 -0.193,-0.6378 -0.2581,-1.3038 z"
       shaper:pathType="exterior"
       shaper:cutDepth="0.7087"
       id="path153-3-2"
       inkscape:connector-curvature="0"
       style="fill:#000000;stroke-width:25.8191" />
    <path
       d="m 85.05842,585.96453 v -30.4872 l 0.097,-1.3838 0.1194,-0.6842 0.3744,-1.3349 0.5524,-1.27291 0.7203,-1.1851 0.8753,-1.0766 1.0148,-0.9476 1.1333,-0.8004 0.6043,-0.3382 1.2728,-0.5551 1.3347,-0.3718 1.3762,-0.191 9.6822,-0.01 v 18.07591 l -0.328,0.3666 -0.3383,0.5836 -0.2083,0.6429 -0.069,0.6687 0.069,0.6713 0.2083,0.6429 0.3383,0.5835 0.328,0.3847 0.6687,0.5138 0.617,0.2737 0.6584,0.1419 h 0.6764 l 0.6583,-0.1419 0.617,-0.2737 0.5474,-0.3976 0.1041,-0.1161 h 8.9102 l 0.1041,0.1161 0.5474,0.3976 0.617,0.2737 0.6583,0.1419 h 0.6764 l 0.6584,-0.1419 0.617,-0.2737 0.5448,-0.3976 0.4519,-0.5009 0.3383,-0.5835 0.2083,-0.6429 0.069,-0.6713 -0.069,-0.6687 -0.2083,-0.6429 -0.3383,-0.5836 -0.3279,-0.3666 v -18.08631 l 14.0713,-0.01 55.4801,-9.4601 55.9913,-5.6931 56.2495,-1.9029 56.2495,1.9029 55.9939,5.6931 55.4801,9.4601 h 14.0739 v 18.09401 l -0.3304,0.3666 -0.3357,0.5836 -0.209,0.6429 -0.072,0.6687 0.072,0.6713 0.209,0.6429 0.3357,0.5835 0.4518,0.5009 0.5474,0.3976 0.6145,0.2737 0.6609,0.1419 h 0.6739 l 0.661,-0.1419 0.617,-0.2737 0.5448,-0.3976 0.1059,-0.1161 h 8.9076 l 0.1059,0.1161 0.5448,0.3976 0.617,0.2737 0.6584,0.1419 h 0.6765 l 0.6584,-0.1419 0.617,-0.2737 0.5448,-0.3976 0.4544,-0.5009 0.3357,-0.5835 0.209,-0.6429 0.07,-0.6713 -0.07,-0.6687 -0.209,-0.6429 -0.3357,-0.5836 -0.3304,-0.3666 v -18.09401 l 9.6563,0.021 0.661,0.067 1.3064,0.2582 1.2574,0.4286 0.6068,0.2737 1.1515,0.6661 1.0534,0.8081 0.488,0.4544 0.8753,0.9992 0.3873,0.5422 0.6635,1.1516 0.5112,1.22891 0.3434,1.2833 0.173,1.3193 0.023,31.1508 -0.096,1.3839 -0.2814,1.358 -0.2119,0.6636 -0.5525,1.2729 -0.7203,1.1851 -0.4183,0.5525 -0.9476,1.0147 -1.0766,0.8753 -1.1851,0.7203 -1.2729,0.5525 -0.6635,0.2091 -1.3555,0.284 -0.692,0.07 -26.5472,0.023 -60.4219,-11.2726 -61.0905,-6.7904 -61.4237,-2.267 -61.4236,2.267 -61.088,6.7904 -60.4244,11.2726 -26.5163,-0.021 -1.3192,-0.173 -1.2833,-0.346 -1.2288,-0.5086 -1.1516,-0.6635 -1.0562,-0.8108 -0.9398,-0.9398 -0.8082,-1.0534 -0.6662,-1.1541 -0.5088,-1.2264 -0.193,-0.6378 -0.2581,-1.3038 z"
       shaper:pathType="exterior"
       shaper:cutDepth="0.7087"
       id="path153-9"
       inkscape:connector-curvature="0"
       style="fill:#000000;stroke-width:25.8191" />
    <path
       d="m 83.18122,697.78026 v -30.4872 l 0.097,-1.3838 0.1194,-0.6842 0.3744,-1.3349 0.5524,-1.27291 0.7203,-1.1851 0.8753,-1.0766 1.0148,-0.9476 1.1333,-0.8004 0.6043,-0.3382 1.2728,-0.5551 1.3347,-0.3718 1.3762,-0.191 9.6822,-0.01 v 18.07591 l -0.328,0.3666 -0.3383,0.5836 -0.2083,0.6429 -0.069,0.6687 0.069,0.6713 0.2083,0.6429 0.3383,0.5835 0.328,0.3847 0.6687,0.5138 0.617,0.2737 0.6584,0.1419 h 0.6764 l 0.6583,-0.1419 0.617,-0.2737 0.5474,-0.3976 0.1041,-0.1161 h 8.9102 l 0.1041,0.1161 0.5474,0.3976 0.617,0.2737 0.6583,0.1419 h 0.6764 l 0.6584,-0.1419 0.617,-0.2737 0.5448,-0.3976 0.4519,-0.5009 0.3383,-0.5835 0.2083,-0.6429 0.069,-0.6713 -0.069,-0.6687 -0.2083,-0.6429 -0.3383,-0.5836 -0.3279,-0.3666 v -18.08631 l 14.0713,-0.01 55.4801,-9.4601 55.9913,-5.6931 56.2495,-1.9029 56.2495,1.9029 55.9939,5.6931 55.4801,9.4601 h 14.0739 v 18.09401 l -0.3304,0.3666 -0.3357,0.5836 -0.209,0.6429 -0.072,0.6687 0.072,0.6713 0.209,0.6429 0.3357,0.5835 0.4518,0.5009 0.5474,0.3976 0.6145,0.2737 0.6609,0.1419 h 0.6739 l 0.661,-0.1419 0.617,-0.2737 0.5448,-0.3976 0.1059,-0.1161 h 8.9076 l 0.1059,0.1161 0.5448,0.3976 0.617,0.2737 0.6584,0.1419 h 0.6765 l 0.6584,-0.1419 0.617,-0.2737 0.5448,-0.3976 0.4544,-0.5009 0.3357,-0.5835 0.209,-0.6429 0.07,-0.6713 -0.07,-0.6687 -0.209,-0.6429 -0.3357,-0.5836 -0.3304,-0.3666 v -18.09401 l 9.6563,0.021 0.661,0.067 1.3064,0.2582 1.2574,0.4286 0.6068,0.2737 1.1515,0.6661 1.0534,0.8081 0.488,0.4544 0.8753,0.9992 0.3873,0.5422 0.6635,1.1516 0.5112,1.22891 0.3434,1.2833 0.173,1.3193 0.023,31.1508 -0.096,1.3839 -0.2814,1.358 -0.2119,0.6636 -0.5525,1.2729 -0.7203,1.1851 -0.4183,0.5525 -0.9476,1.0147 -1.0766,0.8753 -1.1851,0.7203 -1.2729,0.5525 -0.6635,0.2091 -1.3555,0.284 -0.692,0.07 -26.5472,0.023 -60.4219,-11.2726 -61.0905,-6.7904 -61.4237,-2.267 -61.4236,2.267 -61.088,6.7904 -60.4244,11.2726 -26.5163,-0.021 -1.3192,-0.173 -1.2833,-0.346 -1.2288,-0.5086 -1.1516,-0.6635 -1.0562,-0.8108 -0.9398,-0.9398 -0.8082,-1.0534 -0.6662,-1.1541 -0.5088,-1.2264 -0.193,-0.6378 -0.2581,-1.3038 z"
       shaper:pathType="exterior"
       shaper:cutDepth="0.7087"
       id="path153-3-1"
       inkscape:connector-curvature="0"
       style="fill:#000000;stroke-width:25.8191" />
    <path
       d="m 185.0881,729.29063 v -30.4872 l 0.097,-1.3838 0.1194,-0.6842 0.3744,-1.3349 0.5524,-1.27291 0.7203,-1.1851 0.8753,-1.0766 1.0148,-0.9476 1.1333,-0.8004 0.6043,-0.3382 1.2728,-0.5551 1.3347,-0.3718 1.3762,-0.191 9.6822,-0.01 v 18.07591 l -0.328,0.3666 -0.3383,0.5836 -0.2083,0.6429 -0.069,0.6687 0.069,0.6713 0.2083,0.6429 0.3383,0.5835 0.328,0.3847 0.6687,0.5138 0.617,0.2737 0.6584,0.1419 h 0.6764 l 0.6583,-0.1419 0.617,-0.2737 0.5474,-0.3976 0.1041,-0.1161 h 8.9102 l 0.1041,0.1161 0.5474,0.3976 0.617,0.2737 0.6583,0.1419 h 0.6764 l 0.6584,-0.1419 0.617,-0.2737 0.5448,-0.3976 0.4519,-0.5009 0.3383,-0.5835 0.2083,-0.6429 0.069,-0.6713 -0.069,-0.6687 -0.2083,-0.6429 -0.3383,-0.5836 -0.3279,-0.3666 v -18.08631 l 14.0713,-0.01 55.4801,-9.4601 55.9913,-5.6931 56.2495,-1.9029 56.2495,1.9029 55.9939,5.6931 55.4801,9.4601 h 14.0739 v 18.09401 l -0.3304,0.3666 -0.3357,0.5836 -0.209,0.6429 -0.072,0.6687 0.072,0.6713 0.209,0.6429 0.3357,0.5835 0.4518,0.5009 0.5474,0.3976 0.6145,0.2737 0.6609,0.1419 h 0.6739 l 0.661,-0.1419 0.617,-0.2737 0.5448,-0.3976 0.1059,-0.1161 h 8.9076 l 0.1059,0.1161 0.5448,0.3976 0.617,0.2737 0.6584,0.1419 h 0.6765 l 0.6584,-0.1419 0.617,-0.2737 0.5448,-0.3976 0.4544,-0.5009 0.3357,-0.5835 0.209,-0.6429 0.07,-0.6713 -0.07,-0.6687 -0.209,-0.6429 -0.3357,-0.5836 -0.3304,-0.3666 v -18.09401 l 9.6563,0.021 0.661,0.067 1.3064,0.2582 1.2574,0.4286 0.6068,0.2737 1.1515,0.6661 1.0534,0.8081 0.488,0.4544 0.8753,0.9992 0.3873,0.5422 0.6635,1.1516 0.5112,1.22891 0.3434,1.2833 0.173,1.3193 0.023,31.1508 -0.096,1.3839 -0.2814,1.358 -0.2119,0.6636 -0.5525,1.2729 -0.7203,1.1851 -0.4183,0.5525 -0.9476,1.0147 -1.0766,0.8753 -1.1851,0.7203 -1.2729,0.5525 -0.6635,0.2091 -1.3555,0.284 -0.692,0.07 -26.5472,0.023 -60.4219,-11.2726 -61.0905,-6.7904 -61.4237,-2.267 -61.4236,2.267 -61.088,6.7904 -60.4244,11.2726 -26.5163,-0.021 -1.3192,-0.173 -1.2833,-0.346 -1.2288,-0.5086 -1.1516,-0.6635 -1.0562,-0.8108 -0.9398,-0.9398 -0.8082,-1.0534 -0.6662,-1.1541 -0.5088,-1.2264 -0.193,-0.6378 -0.2581,-1.3038 z"
       shaper:pathType="exterior"
       shaper:cutDepth="0.7087"
       id="path153-2"
       inkscape:connector-curvature="0"
       style="fill:#000000;stroke-width:25.8191" />
    <path
       d="m 183.2109,841.10636 v -30.4872 l 0.097,-1.3838 0.1194,-0.6842 0.3744,-1.3349 0.5524,-1.27291 0.7203,-1.1851 0.8753,-1.0766 1.0148,-0.9476 1.1333,-0.8004 0.6043,-0.3382 1.2728,-0.5551 1.3347,-0.3718 1.3762,-0.191 9.6822,-0.01 v 18.07591 l -0.328,0.3666 -0.3383,0.5836 -0.2083,0.6429 -0.069,0.6687 0.069,0.6713 0.2083,0.6429 0.3383,0.5835 0.328,0.3847 0.6687,0.5138 0.617,0.2737 0.6584,0.1419 h 0.6764 l 0.6583,-0.1419 0.617,-0.2737 0.5474,-0.3976 0.1041,-0.1161 h 8.9102 l 0.1041,0.1161 0.5474,0.3976 0.617,0.2737 0.6583,0.1419 h 0.6764 l 0.6584,-0.1419 0.617,-0.2737 0.5448,-0.3976 0.4519,-0.5009 0.3383,-0.5835 0.2083,-0.6429 0.069,-0.6713 -0.069,-0.6687 -0.2083,-0.6429 -0.3383,-0.5836 -0.3279,-0.3666 v -18.08631 l 14.0713,-0.01 55.4801,-9.4601 55.9913,-5.6931 56.2495,-1.9029 56.2495,1.9029 55.9939,5.6931 55.4801,9.4601 h 14.0739 v 18.09401 l -0.3304,0.3666 -0.3357,0.5836 -0.209,0.6429 -0.072,0.6687 0.072,0.6713 0.209,0.6429 0.3357,0.5835 0.4518,0.5009 0.5474,0.3976 0.6145,0.2737 0.6609,0.1419 h 0.6739 l 0.661,-0.1419 0.617,-0.2737 0.5448,-0.3976 0.1059,-0.1161 h 8.9076 l 0.1059,0.1161 0.5448,0.3976 0.617,0.2737 0.6584,0.1419 h 0.6765 l 0.6584,-0.1419 0.617,-0.2737 0.5448,-0.3976 0.4544,-0.5009 0.3357,-0.5835 0.209,-0.6429 0.07,-0.6713 -0.07,-0.6687 -0.209,-0.6429 -0.3357,-0.5836 -0.3304,-0.3666 v -18.09401 l 9.6563,0.021 0.661,0.067 1.3064,0.2582 1.2574,0.4286 0.6068,0.2737 1.1515,0.6661 1.0534,0.8081 0.488,0.4544 0.8753,0.9992 0.3873,0.5422 0.6635,1.1516 0.5112,1.22891 0.3434,1.2833 0.173,1.3193 0.023,31.1508 -0.096,1.3839 -0.2814,1.358 -0.2119,0.6636 -0.5525,1.2729 -0.7203,1.1851 -0.4183,0.5525 -0.9476,1.0147 -1.0766,0.8753 -1.1851,0.7203 -1.2729,0.5525 -0.6635,0.2091 -1.3555,0.284 -0.692,0.07 -26.5472,0.023 -60.4219,-11.2726 -61.0905,-6.7904 -61.4237,-2.267 -61.4236,2.267 -61.088,6.7904 -60.4244,11.2726 -26.5163,-0.021 -1.3192,-0.173 -1.2833,-0.346 -1.2288,-0.5086 -1.1516,-0.6635 -1.0562,-0.8108 -0.9398,-0.9398 -0.8082,-1.0534 -0.6662,-1.1541 -0.5088,-1.2264 -0.193,-0.6378 -0.2581,-1.3038 z"
       shaper:pathType="exterior"
       shaper:cutDepth="0.7087"
       id="path153-3-70"
       inkscape:connector-curvature="0"
       style="fill:#000000;stroke-width:25.8191" />
    <path
       d="m 473.23327,529.23128 v -30.4872 l 0.097,-1.3838 0.1194,-0.6842 0.3744,-1.3349 0.5524,-1.27291 0.7203,-1.1851 0.8753,-1.0766 1.0148,-0.9476 1.1333,-0.8004 0.6043,-0.3382 1.2728,-0.5551 1.3347,-0.3718 1.3762,-0.191 9.6822,-0.01 v 18.07591 l -0.328,0.3666 -0.3383,0.5836 -0.2083,0.6429 -0.069,0.6687 0.069,0.6713 0.2083,0.6429 0.3383,0.5835 0.328,0.3847 0.6687,0.5138 0.617,0.2737 0.6584,0.1419 h 0.6764 l 0.6583,-0.1419 0.617,-0.2737 0.5474,-0.3976 0.1041,-0.1161 h 8.9102 l 0.1041,0.1161 0.5474,0.3976 0.617,0.2737 0.6583,0.1419 h 0.6764 l 0.6584,-0.1419 0.617,-0.2737 0.5448,-0.3976 0.4519,-0.5009 0.3383,-0.5835 0.2083,-0.6429 0.069,-0.6713 -0.069,-0.6687 -0.2083,-0.6429 -0.3383,-0.5836 -0.3279,-0.3666 v -18.08631 l 14.0713,-0.01 55.4801,-9.4601 55.9913,-5.6931 56.2495,-1.9029 56.2495,1.9029 55.9939,5.6931 55.4801,9.4601 h 14.0739 v 18.09401 l -0.3304,0.3666 -0.3357,0.5836 -0.209,0.6429 -0.072,0.6687 0.072,0.6713 0.209,0.6429 0.3357,0.5835 0.4518,0.5009 0.5474,0.3976 0.6145,0.2737 0.6609,0.1419 h 0.6739 l 0.661,-0.1419 0.617,-0.2737 0.5448,-0.3976 0.1059,-0.1161 h 8.9076 l 0.1059,0.1161 0.5448,0.3976 0.617,0.2737 0.6584,0.1419 h 0.6765 l 0.6584,-0.1419 0.617,-0.2737 0.5448,-0.3976 0.4544,-0.5009 0.3357,-0.5835 0.209,-0.6429 0.07,-0.6713 -0.07,-0.6687 -0.209,-0.6429 -0.3357,-0.5836 -0.3304,-0.3666 v -18.09401 l 9.6563,0.021 0.661,0.067 1.3064,0.2582 1.2574,0.4286 0.6068,0.2737 1.1515,0.6661 1.0534,0.8081 0.488,0.4544 0.8753,0.9992 0.3873,0.5422 0.6635,1.1516 0.5112,1.22891 0.3434,1.2833 0.173,1.3193 0.023,31.1508 -0.096,1.3839 -0.2814,1.358 -0.2119,0.6636 -0.5525,1.2729 -0.7203,1.1851 -0.4183,0.5525 -0.9476,1.0147 -1.0766,0.8753 -1.1851,0.7203 -1.2729,0.5525 -0.6635,0.2091 -1.3555,0.284 -0.692,0.07 -26.5472,0.023 -60.4219,-11.2726 -61.0905,-6.7904 -61.4237,-2.267 -61.4236,2.267 -61.088,6.7904 -60.4244,11.2726 -26.5163,-0.021 -1.3192,-0.173 -1.2833,-0.346 -1.2288,-0.5086 -1.1516,-0.6635 -1.0562,-0.8108 -0.9398,-0.9398 -0.8082,-1.0534 -0.6662,-1.1541 -0.5088,-1.2264 -0.193,-0.6378 -0.2581,-1.3038 z"
       shaper:pathType="exterior"
       shaper:cutDepth="0.7087"
       id="path153-93"
       inkscape:connector-curvature="0"
       style="fill:#000000;stroke-width:25.8191" />
    <path
       d="m 471.35607,641.04701 v -30.4872 l 0.097,-1.3838 0.1194,-0.6842 0.3744,-1.3349 0.5524,-1.27291 0.7203,-1.1851 0.8753,-1.0766 1.0148,-0.9476 1.1333,-0.8004 0.6043,-0.3382 1.2728,-0.5551 1.3347,-0.3718 1.3762,-0.191 9.6822,-0.01 v 18.07591 l -0.328,0.3666 -0.3383,0.5836 -0.2083,0.6429 -0.069,0.6687 0.069,0.6713 0.2083,0.6429 0.3383,0.5835 0.328,0.3847 0.6687,0.5138 0.617,0.2737 0.6584,0.1419 h 0.6764 l 0.6583,-0.1419 0.617,-0.2737 0.5474,-0.3976 0.1041,-0.1161 h 8.9102 l 0.1041,0.1161 0.5474,0.3976 0.617,0.2737 0.6583,0.1419 h 0.6764 l 0.6584,-0.1419 0.617,-0.2737 0.5448,-0.3976 0.4519,-0.5009 0.3383,-0.5835 0.2083,-0.6429 0.069,-0.6713 -0.069,-0.6687 -0.2083,-0.6429 -0.3383,-0.5836 -0.3279,-0.3666 V 600.3978 l 14.0713,-0.01 55.4801,-9.4601 55.9913,-5.6931 56.2495,-1.9029 56.2495,1.9029 55.9939,5.6931 55.4801,9.4601 h 14.0739 v 18.09401 l -0.3304,0.3666 -0.3357,0.5836 -0.209,0.6429 -0.072,0.6687 0.072,0.6713 0.209,0.6429 0.3357,0.5835 0.4518,0.5009 0.5474,0.3976 0.6145,0.2737 0.6609,0.1419 h 0.6739 l 0.661,-0.1419 0.617,-0.2737 0.5448,-0.3976 0.1059,-0.1161 h 8.9076 l 0.1059,0.1161 0.5448,0.3976 0.617,0.2737 0.6584,0.1419 h 0.6765 l 0.6584,-0.1419 0.617,-0.2737 0.5448,-0.3976 0.4544,-0.5009 0.3357,-0.5835 0.209,-0.6429 0.07,-0.6713 -0.07,-0.6687 -0.209,-0.6429 -0.3357,-0.5836 -0.3304,-0.3666 V 600.3878 l 9.6563,0.021 0.661,0.067 1.3064,0.2582 1.2574,0.4286 0.6068,0.2737 1.1515,0.6661 1.0534,0.8081 0.488,0.4544 0.8753,0.9992 0.3873,0.5422 0.6635,1.1516 0.5112,1.22891 0.3434,1.2833 0.173,1.3193 0.023,31.1508 -0.096,1.3839 -0.2814,1.358 -0.2119,0.6636 -0.5525,1.2729 -0.7203,1.1851 -0.4183,0.5525 -0.9476,1.0147 -1.0766,0.8753 -1.1851,0.7203 -1.2729,0.5525 -0.6635,0.2091 -1.3555,0.284 -0.692,0.07 -26.5472,0.023 -60.4219,-11.2726 -61.0905,-6.7904 -61.4237,-2.267 -61.4236,2.267 -61.088,6.7904 -60.4244,11.2726 -26.5163,-0.021 -1.3192,-0.173 -1.2833,-0.346 -1.2288,-0.5086 -1.1516,-0.6635 -1.0562,-0.8108 -0.9398,-0.9398 -0.8082,-1.0534 -0.6662,-1.1541 -0.5088,-1.2264 -0.193,-0.6378 -0.2581,-1.3038 z"
       shaper:pathType="exterior"
       shaper:cutDepth="0.7087"
       id="path153-3-6"
       inkscape:connector-curvature="0"
       style="fill:#000000;stroke-width:25.8191" />
  </g>
</svg>
