<?xml version="1.0" encoding="UTF-8" standalone="no"?>
<!-- ARC is A xrad yrad xrotation-degrees largearc sweep end_x end_y -->

<svg
   xmlns:shaper="http://www.shapertools.com/namespaces/shaper"
   xmlns:dc="http://purl.org/dc/elements/1.1/"
   xmlns:cc="http://creativecommons.org/ns#"
   xmlns:rdf="http://www.w3.org/1999/02/22-rdf-syntax-ns#"
   xmlns:svg="http://www.w3.org/2000/svg"
   xmlns="http://www.w3.org/2000/svg"
   xmlns:sodipodi="http://sodipodi.sourceforge.net/DTD/sodipodi-0.dtd"
   xmlns:inkscape="http://www.inkscape.org/namespaces/inkscape"
   enable-background="new 0.0000 0.0000 48.0008 24.0004"
   height="622mm"
   width="1500mm"
   version="1.1"
   viewBox="0 0 59.055117 24.488189"
   x="0.0000in"
   y="0.0000in"
   shaper:sketchupaddin="2.1.0"
   id="svg159"
   sodipodi:docname="Valovi_Chair_braket_vs03.svg"
   inkscape:version="0.92.4 (5da689c313, 2019-01-14)">
  <metadata
     id="metadata165">
    <rdf:RDF>
      <cc:Work
         rdf:about="">
        <dc:format>image/svg+xml</dc:format>
        <dc:type
           rdf:resource="http://purl.org/dc/dcmitype/StillImage" />
        <dc:title>VC4 layout cut profile
</dc:title>
      </cc:Work>
    </rdf:RDF>
  </metadata>
  <defs
     id="defs163" />
  <sodipodi:namedview
     pagecolor="#ffffff"
     bordercolor="#666666"
     borderopacity="1"
     objecttolerance="10"
     gridtolerance="10"
     guidetolerance="10"
     inkscape:pageopacity="0"
     inkscape:pageshadow="2"
     inkscape:window-width="1920"
     inkscape:window-height="1000"
     id="namedview161"
     showgrid="false"
     units="mm"
     inkscape:document-units="mm"
     inkscape:zoom="0.080759942"
     inkscape:cx="5341.0939"
     inkscape:cy="-2310.3226"
     inkscape:window-x="0"
     inkscape:window-y="40"
     inkscape:window-maximized="1"
     inkscape:current-layer="svg159" />
  <title
     id="title133">VC4 layout cut profile
</title>
  <desc
     id="desc135">Shaper cut profile from Sketchup model VC4 layout
</desc>
  <path
     d="M 6.5794914,24.687284 H 5.3792082 l -0.054484,-0.0038 -0.026937,-0.0047 -0.052553,-0.01474 -0.050114,-0.02175 -0.046657,-0.02836 -0.042388,-0.03446 -0.037306,-0.03995 -0.031511,-0.04462 -0.013316,-0.02379 -0.021855,-0.05011 -0.014638,-0.05255 -0.00752,-0.05418 -2.033e-4,-0.381187 h 0.7116516 l 0.014434,0.01291 0.022973,0.01332 0.025311,0.0082 0.026327,0.0027 0.026429,-0.0027 0.025311,-0.0082 0.022973,-0.01332 0.015146,-0.01291 0.020228,-0.02633 0.010775,-0.02429 0.00559,-0.02592 v -0.02663 l -0.00559,-0.02592 -0.010775,-0.02429 -0.015654,-0.02155 -0.00457,-0.0041 v -0.350794 l 0.00457,-0.0041 0.015654,-0.02155 0.010775,-0.02429 0.00559,-0.02592 v -0.02663 l -0.00559,-0.02592 -0.010775,-0.02429 -0.015654,-0.02145 -0.01972,-0.01779 -0.022973,-0.01332 -0.025311,-0.0082 -0.026429,-0.0027 -0.026327,0.0027 -0.025311,0.0082 -0.022973,0.01332 -0.014434,0.01291 H 4.9793171 L 4.9790121,22.670243 4.6065665,20.485988 4.3824283,18.281606 4.3075122,16.067059 4.3824283,13.852512 4.6065665,11.648028 4.9790121,9.463773 V 8.9096789 h 0.7123632 l 0.014434,0.013011 0.022973,0.013215 0.025311,0.00823 0.026327,0.00285 0.026429,-0.00285 0.025311,-0.00823 0.022973,-0.013215 0.01972,-0.017789 0.015654,-0.02155 0.010775,-0.024193 0.00559,-0.026022 v -0.026531 l -0.00559,-0.026022 -0.010775,-0.024294 -0.015654,-0.021448 -0.00457,-0.00417 V 8.3799807 l 0.00457,-0.00417 0.015654,-0.021448 0.010775,-0.024294 0.00559,-0.025921 v -0.026632 l -0.00559,-0.025921 -0.010775,-0.024294 -0.015654,-0.021448 -0.01972,-0.01789 -0.022973,-0.013215 -0.025311,-0.00823 -0.026429,-0.00274 -0.026327,0.00274 -0.025311,0.00823 -0.022973,0.013215 -0.014434,0.013011 H 4.9790121 l 8.132e-4,-0.380171 0.00264,-0.026022 0.010165,-0.051435 0.016874,-0.049504 0.010775,-0.023888 0.026226,-0.045336 0.031816,-0.041473 0.01789,-0.019212 0.039339,-0.034459 0.021346,-0.015248 0.045336,-0.026124 0.048385,-0.020127 0.05052,-0.013519 0.051943,-0.00681 1.2264073,-9.148e-4 0.054484,0.00376 0.053468,0.01108 0.026124,0.00834 0.050114,0.021753 0.046657,0.02836 0.021753,0.016467 0.039949,0.037306 0.034459,0.042388 0.02836,0.046657 0.021753,0.050113 0.00823,0.026124 0.011182,0.053366 0.00274,0.027242 9.148e-4,1.0451653 -0.4438039,2.3788138 -0.2673395,2.40514 -0.089249,2.418254 0.089249,2.418253 0.2673395,2.405039 0.4438039,2.378915 -8.132e-4,1.043946 -0.00681,0.05194 -0.013621,0.05052 -0.020025,0.04838 -0.026124,0.04534 -0.031918,0.04158 -0.037001,0.037 -0.041473,0.03182 -0.045438,0.02623 -0.048284,0.02003 -0.025108,0.0076 -0.051333,0.01016 z"
     shaper:pathType="exterior"
     shaper:cutDepth="0.7087"
     id="path153"
     inkscape:connector-curvature="0"
     style="fill:#000000;stroke-width:1.0165" />
</svg>
