<?xml version="1.0" encoding="UTF-8" standalone="no"?>
<!-- ARC is A xrad yrad xrotation-degrees largearc sweep end_x end_y -->

<svg
   xmlns:shaper="http://www.shapertools.com/namespaces/shaper"
   xmlns:dc="http://purl.org/dc/elements/1.1/"
   xmlns:cc="http://creativecommons.org/ns#"
   xmlns:rdf="http://www.w3.org/1999/02/22-rdf-syntax-ns#"
   xmlns:svg="http://www.w3.org/2000/svg"
   xmlns="http://www.w3.org/2000/svg"
   xmlns:sodipodi="http://sodipodi.sourceforge.net/DTD/sodipodi-0.dtd"
   xmlns:inkscape="http://www.inkscape.org/namespaces/inkscape"
   enable-background="new 0.0000 0.0000 48.0008 24.0004"
   height="622mm"
   width="1500mm"
   version="1.1"
   viewBox="0 0 59.055117 24.488189"
   x="0.0000in"
   y="0.0000in"
   shaper:sketchupaddin="2.1.0"
   id="svg159"
   sodipodi:docname="Valovi_Chair_side_vs03.svg"
   inkscape:version="0.92.4 (5da689c313, 2019-01-14)">
  <metadata
     id="metadata165">
    <rdf:RDF>
      <cc:Work
         rdf:about="">
        <dc:format>image/svg+xml</dc:format>
        <dc:type
           rdf:resource="http://purl.org/dc/dcmitype/StillImage" />
        <dc:title>VC4 layout cut profile
</dc:title>
      </cc:Work>
    </rdf:RDF>
  </metadata>
  <defs
     id="defs163" />
  <sodipodi:namedview
     pagecolor="#ffffff"
     bordercolor="#666666"
     borderopacity="1"
     objecttolerance="10"
     gridtolerance="10"
     guidetolerance="10"
     inkscape:pageopacity="0"
     inkscape:pageshadow="2"
     inkscape:window-width="1920"
     inkscape:window-height="1000"
     id="namedview161"
     showgrid="false"
     units="mm"
     inkscape:document-units="mm"
     inkscape:zoom="0.080759942"
     inkscape:cx="5341.0939"
     inkscape:cy="-2310.3226"
     inkscape:window-x="0"
     inkscape:window-y="40"
     inkscape:window-maximized="1"
     inkscape:current-layer="svg159" />
  <title
     id="title133">VC4 layout cut profile
</title>
  <desc
     id="desc135">Shaper cut profile from Sketchup model VC4 layout
</desc>
  <path
     d="m 39.036641,1.4827233 -0.02267,0.013723 -0.01403,0.013215 -9.030485,0.2255614 0.012,-0.076034 0.01809,-0.079694 0.02348,-0.077864 0.02867,-0.076339 0.03385,-0.074509 0.03873,-0.07146 0.04361,-0.069122 0.04818,-0.065666 0.05245,-0.062515 0.05662,-0.058652 0.06048,-0.0547893 0.06414,-0.0504184 0.06729,-0.0461491 0.07024,-0.0413716 0.07298,-0.036289 0.07522,-0.0315115 0.07725,-0.0263273 0.07888,-0.0207366 0.08,-0.0156541 0.08091,-0.009962 4.416591,-0.39856965 5.725131,-3.0495e-4 7.189603,-4.0659e-4 V 2.3285529 l -15.241503,1.374613 -0.07796,0.00956 -0.07725,0.014739 -0.07603,0.019517 -0.07461,0.024701 -0.07288,0.029783 -0.07075,0.034256 -0.06841,0.038525 -0.06567,0.043303 -0.06272,0.047166 -0.05947,0.051537 -0.05611,0.054993 -0.05225,0.05855 -0.04828,0.062108 -0.04422,0.064751 -0.03985,0.067801 -0.03527,0.070139 -0.0307,0.072476 -0.02582,0.074306 -0.02094,0.075729 -0.01596,0.076949 -0.01088,0.077864 -0.0057,0.078271 -6.09e-4,0.07888 0.307999,12.3346181 0.0046,0.07949 0.0099,0.07868 0.01505,0.07807 0.02013,0.07675 0.02521,0.07502 0.03009,0.0737 0.03487,0.07126 0.03954,0.06902 0.04391,0.06577 0.04828,0.06323 0.05235,0.05957 0.05611,0.05621 0.05977,0.05255 0.06302,0.04808 0.06607,0.04401 0.06892,0.03944 0.07136,0.03466 0.07339,0.03019 0.07532,0.02541 15.169027,2.867223 1.01e-4,2.643614 -5.995113,-0.854167 -0.01067,-0.0025 0.216718,-0.897773 0.01596,-0.01077 0.0183,-0.01921 0.01393,-0.02277 0.0088,-0.02511 0.0036,0.05721 -0.002,-0.02673 -0.0075,-0.02541 -0.01271,-0.02328 -0.01718,-0.02003 -0.02104,-0.01626 -0.02399,-0.01149 -0.02582,-0.0061 -0.02653,-9.15e-4 -0.02612,0.0046 -0.0246,0.01027 -0.0051,0.0038 -0.340934,-0.08244 -0.0029,-0.0055 -0.01718,-0.02033 -0.02114,-0.01596 -0.02389,-0.01139 -0.02592,-0.0066 -0.02653,-5.08e-4 -0.02612,0.0047 -0.0245,0.01017 -0.02196,0.01504 -0.0183,0.01921 -0.01382,0.02277 -0.0089,0.02511 -0.0036,0.02602 0.0021,0.02684 0.0074,0.02541 0.0092,0.01698 -0.217632,0.90133 -16.767269,-2.386196 -0.138244,-0.02785 -0.139769,-0.01728 -0.140785,-0.0081 -0.140887,0.0023 -0.140379,0.01189 -0.13926,0.02196 -0.13733,0.03182 -8.3045,2.22461 -0.05418,0.0069 -0.02724,7.12e-4 -0.05449,-0.0047 -0.05337,-0.01138 -0.05133,-0.01921 -0.0245,-0.01179 -0.04635,-0.02887 -0.04198,-0.03497 -0.0368,-0.04025 -0.031,-0.04534 -0.0246,-0.04859 -0.01769,-0.05164 -0.310744,-1.159521 -0.01027,-0.05143 -0.0025,-0.02633 v -0.05204 l 0.0068,-0.05225 0.006,-0.02531 0.01677,-0.04971 0.02318,-0.04656 0.02907,-0.04361 0.03456,-0.03964 0.03934,-0.03426 0.04351,-0.02907 0.04696,-0.02318 0.0495,-0.01687 0.577474,-0.154915 0.235828,0.878358 -0.0088,0.01708 -0.0068,0.02582 -0.0014,0.02643 0.0042,0.02633 0.0096,0.02491 0.01454,0.02206 0.0187,0.01881 0.02236,0.01464 0.0248,0.0094 0.02623,0.0042 0.02653,-0.0014 0.02562,-0.0071 0.02368,-0.01179 0.02064,-0.01687 0.01667,-0.02043 0.0028,-0.0057 0.338698,-0.09088 0.0052,0.0035 0.0248,0.0094 0.02623,0.0042 0.02653,-0.0015 0.02572,-0.0066 0.02358,-0.0122 0.02064,-0.01687 0.01677,-0.02043 0.01199,-0.02399 0.0069,-0.02541 0.0013,-0.02643 -0.0042,-0.02633 -0.0095,-0.02501 -0.01454,-0.02196 -0.01881,-0.01881 -0.01626,-0.01077 -0.235726,-0.877646 0.66845,-0.179209 0.235625,0.877646 -0.0088,0.01698 -0.0068,0.02582 -0.0014,0.02643 0.0042,0.02633 0.0096,0.02501 0.01443,0.02206 0.01881,0.0187 0.02236,0.01464 0.0248,0.0095 0.02623,0.0042 0.02653,-0.0015 0.02562,-0.007 0.02368,-0.01179 0.02063,-0.01698 0.01667,-0.02043 0.0028,-0.0056 0.338698,-0.09098 0.0052,0.0035 0.0248,0.0095 0.02623,0.0041 0.02653,-0.0014 0.02572,-0.0066 0.02368,-0.0122 0.02064,-0.01697 0.01667,-0.02043 0.012,-0.02389 0.0069,-0.02541 0.0014,-0.02643 -0.0043,-0.02633 -0.0096,-0.02501 -0.01443,-0.02206 -0.0188,-0.0187 -0.01616,-0.01088 -0.235625,-0.877239 0.668349,-0.178803 0.235523,0.876833 -0.0088,0.01708 -0.0068,0.02572 -0.0013,0.02653 0.0041,0.02633 0.0096,0.0249 0.01454,0.02206 0.01881,0.01881 0.02226,0.01464 0.0248,0.0094 0.02623,0.0042 0.02653,-0.0014 0.02562,-0.0071 0.02369,-0.01179 0.02063,-0.01687 0.01667,-0.02043 0.0028,-0.0057 0.338698,-0.09098 0.0052,0.0036 0.0248,0.0094 0.02623,0.0042 0.02653,-0.0015 0.02572,-0.0066 0.02368,-0.0122 0.02063,-0.01687 0.02013,-0.02623 0.0085,-0.0182 0.0069,-0.02541 0.0013,-0.02643 -0.0041,-0.02633 -0.0096,-0.02501 -0.01454,-0.02206 -0.01881,-0.0187 -0.01626,-0.01077 -0.23532,-0.876427 0.668349,-0.179208 0.235319,0.876426 -0.0087,0.01698 -0.0069,0.02582 -0.0014,0.02643 0.0042,0.02633 0.0096,0.02501 0.01454,0.02206 0.0187,0.0187 0.02236,0.01464 0.0248,0.0095 0.02623,0.0042 0.02653,-0.0015 0.02562,-0.007 0.02369,-0.01179 0.02063,-0.01698 0.01677,-0.02043 0.0027,-0.0057 0.338799,-0.09088 0.0051,0.0035 0.02491,0.0094 0.02623,0.0042 0.02643,-0.0014 0.02572,-0.0066 0.02368,-0.0122 0.02063,-0.01698 0.01667,-0.02043 0.0121,-0.02389 0.0068,-0.02541 0.0014,-0.02643 -0.0042,-0.02633 -0.0096,-0.02501 -0.01454,-0.02206 -0.0187,-0.0187 -0.01626,-0.01088 -0.235219,-0.875613 0.668349,-0.179209 0.235117,0.875613 -0.0088,0.01708 -0.0068,0.02572 -0.0013,0.02653 0.0042,0.02633 0.0095,0.02491 0.01454,0.02206 0.01881,0.01881 0.02226,0.01464 0.0248,0.0094 0.02623,0.0042 0.02653,-0.0014 0.02562,-0.0071 0.02368,-0.01179 0.02064,-0.01687 0.01667,-0.02043 0.0028,-0.0057 0.338799,-0.09098 0.0052,0.0036 0.0247,0.0094 0.02633,0.0042 0.02653,-0.0015 0.02562,-0.0066 0.02369,-0.0122 0.02063,-0.01697 0.02013,-0.02612 0.0085,-0.01819 0.0069,-0.02541 0.0014,-0.02643 -0.0042,-0.02633 -0.0096,-0.02501 -0.01454,-0.02206 -0.0187,-0.0187 -0.01626,-0.01077 -0.235015,-0.875308 0.668349,-0.178802 0.234913,0.874901 -0.0087,0.01698 -0.0069,0.02582 -0.0013,0.02643 0.0042,0.02633 0.0096,0.02501 0.01443,0.02206 0.01881,0.0187 0.02226,0.01464 0.0248,0.0095 0.02623,0.0042 0.02653,-0.0015 0.02562,-0.007 0.02368,-0.01179 0.02063,-0.01698 0.01677,-0.02043 0.0027,-0.0057 0.338799,-0.09087 0.0052,0.0035 0.0248,0.0094 0.02623,0.0042 0.02653,-0.0014 0.02562,-0.0067 0.02369,-0.0122 0.02063,-0.01687 0.02023,-0.02612 0.0085,-0.0182 0.0068,-0.02541 0.0014,-0.02643 -0.0042,-0.02633 -0.0096,-0.02501 -0.01444,-0.02206 -0.01881,-0.01881 -0.01626,-0.01078 -0.234812,-0.874393 0.755362,-0.202284 0.139362,-0.03222 0.141497,-0.02196 0.142615,-0.012 0.143021,-0.0015 0.142818,0.0084 0.141904,0.01881 4.197535,0.683393 0.0804,0.01047 0.08102,0.0048 0.08112,-4.07e-4 0.08091,-0.0061 0.0803,-0.01159 0.07929,-0.01718 0.07807,-0.02196 0.07634,-0.02755 0.07431,-0.03263 0.07187,-0.03751 0.06922,-0.04208 0.06628,-0.04696 0.06292,-0.05113 0.05926,-0.0556 0.0555,-0.05896 0.05123,-0.06302 0.04696,-0.06638 0.04239,-0.06912 0.03761,-0.07177 0.03263,-0.0741 0.02755,-0.07634 0.02236,-0.07827 0.01708,-0.07929 0.01159,-0.0803 0.0062,-0.08061 7.11e-4,-0.08132 -0.03365,-1.348184 0.929386,-0.02328 0.01464,0.0125 0.02338,0.01301 0.02541,0.0073 0.02653,0.0021 0.02633,-0.0035 0.02501,-0.0086 0.02267,-0.01413 0.01484,-0.01321 0.01952,-0.02683 0.01017,-0.0243 0.0049,-0.02612 -6.1e-4,-0.02683 -0.0062,-0.02592 -0.01138,-0.02368 -0.01616,-0.02124 -0.0047,-0.0039 -0.0087,-0.350896 0.0045,-0.0041 0.01505,-0.02196 0.01027,-0.02429 0.0048,-0.02612 -6.1e-4,-0.02683 -0.0062,-0.02592 -0.01139,-0.02368 -0.01616,-0.02124 -0.02013,-0.01708 -0.02338,-0.01301 -0.02541,-0.0074 -0.02653,-0.0021 -0.02633,0.0035 -0.02501,0.0086 -0.02267,0.01423 -0.01413,0.01311 -0.929284,0.02318 -0.01728,-0.691729 0.929386,-0.02318 0.01464,0.0124 0.02338,0.01311 0.02541,0.0073 0.02653,0.0021 0.02633,-0.0035 0.02501,-0.0086 0.02267,-0.01413 0.01931,-0.01809 0.01504,-0.02206 0.01016,-0.02419 0.0049,-0.02623 -6.1e-4,-0.02673 -0.0062,-0.02592 -0.01139,-0.02368 -0.01616,-0.02125 -0.0047,-0.0039 -0.0087,-0.350896 0.0045,-0.0041 0.01504,-0.02206 0.01027,-0.02429 0.0048,-0.02612 -6.1e-4,-0.02673 -0.0062,-0.02592 -0.01139,-0.02368 -0.01616,-0.02125 -0.02013,-0.01708 -0.02338,-0.01311 -0.02541,-0.0073 -0.02653,-0.0021 -0.02633,0.0035 -0.02501,0.0086 -0.02267,0.01413 -0.01413,0.01322 -0.929285,0.02318 -0.01728,-0.691728 0.929284,-0.02318 0.01474,0.0124 0.02338,0.01301 0.02541,0.0074 0.02653,0.0021 0.02633,-0.0035 0.02501,-0.0086 0.02267,-0.01413 0.01484,-0.01321 0.01952,-0.02694 0.01017,-0.0243 0.0049,-0.02612 -6.1e-4,-0.02684 -0.0062,-0.02582 -0.01138,-0.02369 -0.01616,-0.02124 -0.0047,-0.0039 -0.0087,-0.350896 0.0045,-0.0042 0.01504,-0.02196 0.01027,-0.02429 0.0048,-0.02612 -6.1e-4,-0.02684 -0.0062,-0.02582 -0.01139,-0.02379 -0.01616,-0.02114 -0.02013,-0.01718 -0.02338,-0.01301 -0.02541,-0.0073 -0.02653,-0.0021 -0.02633,0.0035 -0.02501,0.0086 -0.02267,0.01413 -0.01413,0.01321 -0.929284,0.02318 -0.01728,-0.691728 0.929284,-0.02318 0.01474,0.0124 0.02338,0.01301 0.02541,0.0074 0.02653,0.0021 0.02633,-0.0035 0.02501,-0.0086 0.02267,-0.01423 0.01484,-0.01311 0.01952,-0.02694 0.01017,-0.02429 0.0049,-0.02612 -6.09e-4,-0.02684 -0.0062,-0.02582 -0.01138,-0.02379 -0.01616,-0.02114 -0.0047,-0.004 -0.0087,-0.350794 0.0045,-0.0042 0.01504,-0.02196 0.01027,-0.02429 0.0048,-0.02612 -6.1e-4,-0.02684 -0.0062,-0.02582 -0.01138,-0.02379 -0.01616,-0.02125 -0.02013,-0.01708 -0.02338,-0.01301 -0.02541,-0.0074 -0.02653,-0.0021 -0.02633,0.0035 -0.02501,0.0086 -0.02267,0.01423 -0.01413,0.01311 -0.929284,0.02328 -0.01728,-0.691728 0.929284,-0.02328 0.01474,0.0125 0.02338,0.01301 0.02541,0.0073 0.02653,0.0022 0.02633,-0.0036 0.02501,-0.0085 0.02267,-0.01423 0.01484,-0.01321 0.01952,-0.02684 0.01017,-0.02429 0.0049,-0.02612 -6.1e-4,-0.02684 -0.0062,-0.02582 -0.01139,-0.02379 -0.01616,-0.02124 -0.0047,-0.0039 -0.0087,-0.350895 0.0045,-0.0041 0.01504,-0.02196 0.01017,-0.02429 0.0049,-0.02612 -6.1e-4,-0.02684 -0.0062,-0.02592 -0.01139,-0.02368 -0.01616,-0.02125 -0.02013,-0.01708 -0.02338,-0.01301 -0.02541,-0.0074 -0.02653,-0.0021 -0.02633,0.0035 -0.02501,0.0086 -0.02267,0.01423 -0.01413,0.01311 -0.929285,0.02318 -0.01728,-0.6917285 0.929284,-0.023176 0.01474,0.012503 0.02338,0.013011 0.02541,0.00732 0.02643,0.00213 0.02643,-0.00346 0.02501,-0.00864 0.02267,-0.014129 0.01931,-0.018094 0.01504,-0.022058 0.01017,-0.024193 0.0049,-0.026226 -6.1e-4,-0.026734 -0.0062,-0.025921 -0.01139,-0.023684 -0.01616,-0.021245 -0.0047,-0.00386 -0.0087,-0.3508958 0.0045,-0.00407 0.01505,-0.022058 0.01016,-0.024193 0.0049,-0.026226 -6.1e-4,-0.026734 -0.0062,-0.025921 -0.01138,-0.023684 -0.01616,-0.021245 -0.02013,-0.017077 -0.02338,-0.013011 -0.02541,-0.00742 -0.02653,-0.00213 -0.02633,0.00346 -0.02501,0.00864 -0.02267,0.014129 -0.01413,0.013215 -0.929284,0.023176 -0.01728,-0.6917282 0.929285,-0.023176 0.01474,0.012401 0.02338,0.013011 0.02541,0.00742 0.02643,0.00213 0.02643,-0.00346 0.02501,-0.00864 0.02267,-0.014129 0.01931,-0.018094 0.01504,-0.022058 0.01017,-0.024294 0.0049,-0.026124 -6.1e-4,-0.026734 -0.0062,-0.025921 -0.01138,-0.023684 -0.01616,-0.021245 -0.0047,-0.00386 -0.0087,-0.3508958 0.0045,-0.00407 0.01504,-0.022058 0.01017,-0.024294 0.0049,-0.026124 -6.1e-4,-0.026836 -0.0062,-0.025819 -0.01139,-0.023786 -0.01616,-0.021143 -0.02013,-0.017179 -0.02338,-0.013011 -0.02541,-0.00732 -0.02653,-0.00213 -0.02633,0.00346 -0.02511,0.00864 -0.02257,0.014129 -0.01413,0.013215 -0.929285,0.023176 -0.01728,-0.6917283 0.929284,-0.023176 0.01474,0.012401 0.02338,0.013011 0.02541,0.00742 0.02643,0.00213 0.02643,-0.00346 0.02501,-0.00864 0.02267,-0.014231 0.01484,-0.013113 0.01952,-0.026937 0.01017,-0.024294 0.0049,-0.026124 -6.1e-4,-0.026836 -0.0062,-0.025819 -0.01138,-0.023786 -0.01616,-0.021143 -0.0047,-0.00396 -0.0087,-0.3507941 0.0045,-0.00417 0.01504,-0.021956 0.01017,-0.024294 0.0049,-0.026124 -6.1e-4,-0.026836 -0.0062,-0.025819 -0.01139,-0.023786 -0.01616,-0.021143 -0.02013,-0.017179 -0.02338,-0.013011 -0.02541,-0.00732 -0.02653,-0.00224 -0.02633,0.00356 -0.02511,0.00854 -0.02257,0.014231 -0.01413,0.013113 -0.929284,0.023278 -0.01728,-0.6917282 0.929284,-0.023278 0.01474,0.012503 0.02338,0.013011 0.02541,0.00742 0.02643,0.00213 0.02643,-0.00346 0.02501,-0.00864 0.02267,-0.014231 0.01931,-0.018094 0.01504,-0.021956 0.01017,-0.024294 0.0049,-0.026124 -6.09e-4,-0.026836 -0.0062,-0.025819 -0.01139,-0.023786 -0.01616,-0.021245 -0.0047,-0.00386 -0.0087,-0.3507942 0.0045,-0.00417 0.01504,-0.021956 0.01016,-0.024294 0.0049,-0.026124 -6.1e-4,-0.026836 -0.0062,-0.025819 -0.01138,-0.023786 -0.01616,-0.021245 -0.02013,-0.017077 -0.02338,-0.013011 -0.02541,-0.00742 -0.02653,-0.00213 -0.02633,0.00346 -0.02511,0.00864 -0.02257,0.014231 -0.01413,0.013113 -0.929284,0.023176 -0.01728,-0.6916266 0.929284,-0.023278 0.01474,0.012503 0.02328,0.013011 0.02551,0.00732 0.02643,0.00213 0.02643,-0.00346 0.02501,-0.00864 0.02267,-0.014129 0.01484,-0.013215 0.01952,-0.026836 0.01017,-0.024294 0.0049,-0.026124 -6.1e-4,-0.026836 -0.0062,-0.025921 -0.01139,-0.023684 -0.01616,-0.021245 -0.0047,-0.00386 -0.0087,-0.3508958 0.0045,-0.00407 0.01504,-0.022058 0.01017,-0.024193 0.0049,-0.026226 -6.1e-4,-0.026734 -0.0062,-0.025921 -0.01139,-0.023684 -0.01616,-0.021245 -0.02013,-0.017077 -0.02338,-0.013011 -0.02541,-0.00742 -0.02653,-0.00213 -0.02633,0.00346 -0.02511,0.00864 -0.02257,0.014129 -0.01413,0.013214 -0.929285,0.023176 -0.02114,-0.845728 9.031298,-0.2255614 0.01464,0.01291 0.02338,0.012605 0.02541,0.00732 0.02643,0.00213 0.02643,-0.00346 0.02501,-0.00864 0.02267,-0.013723 0.01484,-0.013621 0.01952,-0.026531 0.01027,-0.024599 0.0048,-0.026124 -6.1e-4,-0.026429 -0.0062,-0.025921 -0.01139,-0.024091 -0.01616,-0.021245 -0.0047,-0.00386 -0.0087,-0.3504892 0.01952,-0.026124 0.01027,-0.024599 0.0049,-0.026226 -7.11e-4,-0.026327 -0.0062,-0.025921 -0.01139,-0.024091 -0.01616,-0.021245 -0.02013,-0.017077 -0.02338,-0.012605 -0.02541,-0.00783 -0.02653,-0.00213 -0.02633,0.00346 z"
     shaper:pathType="exterior"
     shaper:cutDepth="0.7087"
     id="path139"
     inkscape:connector-curvature="0"
     style="fill:#000000;stroke-width:1.0165"
     sodipodi:nodetypes="cccccccccccccccccccccccccccccccccccccccccccccccccccccccccccccccccccccccccccccccccccccccccccccccccccccccccccccccccccccccccccccccccccccccccccccccccccccccccccccccccccccccccccccccccccccccccccccccccccccccccccccccccccccccccccccccccccccccccccccccccccccccccccccccccccccccccccccccccccccccccccccccccccccccccccccccccccccccccccccccccccccccccccccccccccccccccccccccccccccccccccccccccccccccccccccccccccccccccccccccccccccccccccccccccccccccccccccccccccccccccccccccccccccccccccccccccccccccccccccccccccccccccccccccccccccccccccccccccccccccccccccccccccccccccccccccccccccccccccccccccccccccccccccccccccccccccccccccccccccccccccccccccccccccccccccccccccccccccccccccccccccccccccccccccccccccccccccccccccccccccccccccccccccccccccccccccccccccccccccccccccccccccccccccccccccccccccccccccccccccccccccccccccccccccccccccccccc" />
</svg>
