<?xml version="1.0" encoding="UTF-8" standalone="no"?>
<!-- ARC is A xrad yrad xrotation-degrees largearc sweep end_x end_y -->

<svg
   xmlns:shaper="http://www.shapertools.com/namespaces/shaper"
   xmlns:dc="http://purl.org/dc/elements/1.1/"
   xmlns:cc="http://creativecommons.org/ns#"
   xmlns:rdf="http://www.w3.org/1999/02/22-rdf-syntax-ns#"
   xmlns:svg="http://www.w3.org/2000/svg"
   xmlns="http://www.w3.org/2000/svg"
   xmlns:sodipodi="http://sodipodi.sourceforge.net/DTD/sodipodi-0.dtd"
   xmlns:inkscape="http://www.inkscape.org/namespaces/inkscape"
   enable-background="new 0.0000 0.0000 48.0008 24.0004"
   height="24.0004in"
   width="48.0008in"
   version="1.1"
   viewBox="0.0000 0.0000 48.0008 24.0004"
   x="0.0000in"
   y="0.0000in"
   shaper:sketchupaddin="2.1.0"
   id="svg177"
   sodipodi:docname="Valovi_Chair_front_vs03.svg"
   inkscape:version="0.92.4 (5da689c313, 2019-01-14)">
  <metadata
     id="metadata183">
    <rdf:RDF>
      <cc:Work
         rdf:about="">
        <dc:format>image/svg+xml</dc:format>
        <dc:type
           rdf:resource="http://purl.org/dc/dcmitype/StillImage" />
        <dc:title>VC4 layout cut profile
</dc:title>
      </cc:Work>
    </rdf:RDF>
  </metadata>
  <defs
     id="defs181" />
  <sodipodi:namedview
     pagecolor="#ffffff"
     bordercolor="#666666"
     borderopacity="1"
     objecttolerance="10"
     gridtolerance="10"
     guidetolerance="10"
     inkscape:pageopacity="0"
     inkscape:pageshadow="2"
     inkscape:window-width="1920"
     inkscape:window-height="1000"
     id="namedview179"
     showgrid="false"
     inkscape:zoom="0.19027729"
     inkscape:cx="-413.42207"
     inkscape:cy="1601.2788"
     inkscape:window-x="0"
     inkscape:window-y="40"
     inkscape:window-maximized="1"
     inkscape:current-layer="svg177" />
  <title
     id="title151">VC4 layout cut profile
</title>
  <desc
     id="desc153">Shaper cut profile from Sketchup model VC4 layout
</desc>
  <path
     d="M 17.1317,18.0759 17.1309,0.3165 17.1242,0.2654 17.1183,0.2403 17.1018,0.1916 17.0911,0.1681 17.0654,0.1235 17.0504,0.1026 17.0164,0.0638 16.9777,0.0299 16.9349,0.0013 16.8887,-0.0215 16.8399,-0.038 l -0.0251,-0.0059 -0.051,-0.0067 -0.8829,-7e-4 -0.1442,-2e-4 L 13.3965,0.3852 11.0304,0.6481 8.6514,0.7359 6.2724,0.6481 3.9064,0.3852 1.5661,-0.0515 0.5391,-0.0506 0.488,-0.0439 0.4629,-0.038 0.4141,-0.0215 0.368,0.0013 0.3252,0.0299 0.2864,0.0638 0.2525,0.1026 0.2239,0.1454 0.2011,0.1916 0.1845,0.2403 0.1745,0.2908 0.172,0.3165 0.1719,2.0743 0.1711,18.0759 H 0.9122 V 9.1888 L 0.8994,9.1747 0.8864,9.1521 0.8783,9.1272 0.8756,9.1012 0.8783,9.0752 0.8864,9.0504 0.8994,9.0277 0.917,9.0083 0.9381,8.993 0.962,8.9823 0.9875,8.9769 H 1.0137 L 1.0392,8.9823 1.0631,8.993 1.0842,9.0083 1.0883,9.0128 h 0.345 L 1.4374,9.0083 1.4585,8.993 1.4824,8.9823 1.508,8.9769 H 1.5341 L 1.5597,8.9823 1.5835,8.993 1.6047,9.0083 1.6222,9.0277 1.6352,9.0504 1.6433,9.0752 1.6461,9.1012 1.6433,9.1272 1.6352,9.1521 1.6222,9.1747 1.6094,9.1888 v 8.8871 H 2.3522 L 2.3531,2.4062 2.3602,2.3537 2.3664,2.3279 2.384,2.2778 2.4081,2.2306 2.4225,2.2083 2.4555,2.1669 2.4939,2.1302 2.5149,2.114 2.5598,2.0858 2.6081,2.0639 2.659,2.0488 2.7114,2.0406 2.7379,2.0391 2.7909,2.0416 5.1384,2.3855 7.4783,2.556 h 2.3462 l 2.3399,-0.1705 2.3476,-0.3439 0.053,-0.0025 0.0265,0.0015 0.0524,0.0082 0.0256,0.0067 0.0497,0.0186 0.0238,0.0117 0.045,0.0282 0.0407,0.0339 0.0358,0.0391 0.0303,0.0436 0.0241,0.0472 0.0096,0.0248 0.0141,0.6416 0.0071,0.0526 9e-4,15.0791 h 0.7411 V 9.1888 L 15.679,9.1747 15.6659,9.1521 15.6578,9.1272 15.6551,9.1012 15.6578,9.0752 15.6659,9.0504 15.679,9.0277 15.6965,9.0083 15.7176,8.993 15.7415,8.9823 15.7671,8.9769 h 0.0261 l 0.0255,0.0054 0.0239,0.0107 0.0212,0.0153 0.004,0.0045 h 0.3451 L 16.2169,9.0083 16.2381,8.993 16.262,8.9823 16.2875,8.9769 h 0.0262 l 0.0255,0.0054 0.0239,0.0107 0.0259,0.0198 0.0127,0.0149 0.0131,0.0227 0.0081,0.0248 0.0027,0.026 -0.0027,0.026 -0.0081,0.0249 -0.0131,0.0226 -0.0127,0.0141 v 8.8871 z"
     shaper:pathType="exterior"
     shaper:cutDepth="0.7087"
     id="path161"
     inkscape:connector-curvature="0"
     style="fill:#000000" />
  <path
     d="M 0.0009 23.6320 L 0.0008 24.0000  L 0.3680 23.9991  L 0.3169 23.9924  L 0.2918 23.9865  L 0.2430 23.9700  L 0.1969 23.9472  L 0.1541 23.9186  L 0.1153 23.8847  L 0.0814 23.8459  L 0.0528 23.8031  L 0.0300 23.7569  L 0.0134 23.7082  L 0.0034 23.6577  L 0.0009 23.6320Z "
     transform="matrix(1,0,0,-1,0.0,24.0004)"
     shaper:pathType="exterior"
     shaper:cutDepth="0.7087"
     fill="rgb(0,0,0)"
     id="path175" />
</svg>
