<?xml version="1.0" encoding="UTF-8" standalone="no"?>
<!-- ARC is A xrad yrad xrotation-degrees largearc sweep end_x end_y -->

<svg
   enable-background="new 0.0000 0.0000 48.0008 24.0004"
   height="500mm"
   width="830mm"
   version="1.1"
   viewBox="0 0 830 500"
   x="0.0000in"
   y="0.0000in"
   shaper:sketchupaddin="2.1.0"
   id="svg159"
   sodipodi:docname="Valovi_Chair_all_brakets.svg"
   inkscape:version="1.4 (86a8ad7, 2024-10-11)"
   xml:space="preserve"
   xmlns:inkscape="http://www.inkscape.org/namespaces/inkscape"
   xmlns:sodipodi="http://sodipodi.sourceforge.net/DTD/sodipodi-0.dtd"
   xmlns="http://www.w3.org/2000/svg"
   xmlns:svg="http://www.w3.org/2000/svg"
   xmlns:rdf="http://www.w3.org/1999/02/22-rdf-syntax-ns#"
   xmlns:cc="http://creativecommons.org/ns#"
   xmlns:dc="http://purl.org/dc/elements/1.1/"
   xmlns:shaper="http://www.shapertools.com/namespaces/shaper"><metadata
     id="metadata165"><rdf:RDF><cc:Work
         rdf:about=""><dc:format>image/svg+xml</dc:format><dc:type
           rdf:resource="http://purl.org/dc/dcmitype/StillImage" /><dc:title>VC4 layout cut profile
</dc:title></cc:Work></rdf:RDF></metadata><defs
     id="defs163" /><sodipodi:namedview
     pagecolor="#ffffff"
     bordercolor="#666666"
     borderopacity="1"
     objecttolerance="10"
     gridtolerance="10"
     guidetolerance="10"
     inkscape:pageopacity="0"
     inkscape:pageshadow="2"
     inkscape:window-width="3840"
     inkscape:window-height="2054"
     id="namedview161"
     showgrid="false"
     units="mm"
     inkscape:document-units="mm"
     inkscape:zoom="0.91369444"
     inkscape:cx="1257.532"
     inkscape:cy="957.10334"
     inkscape:window-x="-11"
     inkscape:window-y="-11"
     inkscape:window-maximized="1"
     inkscape:current-layer="svg159"
     inkscape:showpageshadow="2"
     inkscape:pagecheckerboard="0"
     inkscape:deskcolor="#d1d1d1" /><title
     id="title133">VC4 layout cut profile
</title><desc
     id="desc135">Shaper cut profile from Sketchup model VC4 layout
</desc><path
     d="m 87.006487,250.15454 -1.89453,-56.16797 -5.67187,-55.91211 -9.42383,-55.394534 -0.008,-14.0957 h -18.08399 l -0.375,0.33594 -0.57226,0.33398 -0.63086,0.20313 -0.65625,0.0684 -0.65821,-0.0684 -0.6289,-0.20313 -0.57227,-0.33398 -0.49219,-0.44336 -0.38867,-0.53516 -0.26953,-0.60742 -0.13867,-0.64648 v -0.66407 l 0.13867,-0.64843 0.26953,-0.60547 0.38867,-0.53907 0.12891,-0.11523 v -8.94141 l -0.12891,-0.11523 -0.38867,-0.53711 -0.26953,-0.60742 -0.13867,-0.64649 v -0.66601 l 0.13867,-0.64649 0.26953,-0.60546 0.50391,-0.66016 0.37695,-0.32031 0.57227,-0.33203 0.6289,-0.20508 0.66016,-0.0684 0.6543,0.0684 0.63086,0.20508 0.57226,0.33203 0.375,0.33593 h 18.07422 l -0.004,-9.7207 -0.1914,-1.38086 -0.37305,-1.33984 -0.55469,-1.27539 -0.33984,-0.60742 -0.80078,-1.13672 -0.94727,-1.01758 -1.07812,-0.87891 -1.1875,-0.72265 -1.27344,-0.55469 -1.33594,-0.375 -0.68554,-0.1211 -1.38282,-0.0957 h -30.37109 l -1.32422,0.0879 -1.30469,0.25977 -0.64063,0.19336 -1.22655,0.51172 -1.1543,0.66796 -1.05469,0.81055 -0.9414,0.94336 -0.81056,1.05859 -0.66405,1.15625 -0.50977,1.23243 -0.3457,1.28906 -0.17383,1.32226 -0.0195,26.48633 11.22851,60.335944 6.76368,60.99414 2.25781,61.32813 -2.25781,61.32812 -6.76368,60.99414 -11.22851,60.33594 0.0215,26.51367 0.0703,0.69727 0.2832,1.35742 0.20898,0.66797 0.55275,1.27539 0.7207,1.18945 0.87695,1.08008 1.01562,0.95117 0.55273,0.41992 1.18556,0.72267 1.27343,0.55469 0.66601,0.21093 1.35938,0.28321 1.38281,0.0957 31.03516,-0.0215 1.32032,-0.17383 1.28319,-0.34571 1.23047,-0.51171 1.15234,-0.66602 0.54493,-0.38867 0.99805,-0.87891 0.45702,-0.49023 0.8086,-1.05664 0.66602,-1.15431 0.27343,-0.60938 0.4297,-1.26171 0.2578,-1.31055 0.0664,-0.66405 0.0215,-9.69533 h -18.09375 l -0.375,0.33985 -0.57226,0.33008 -0.63086,0.20507 -0.6543,0.0664 -0.6582,-0.0664 -0.63086,-0.20507 -0.57227,-0.33008 -0.49219,-0.44727 -0.38867,-0.53515 -0.26758,-0.60547 -0.14062,-0.64844 v -0.66406 l 0.14062,-0.64649 0.26758,-0.60742 0.39063,-0.53516 0.1289,-0.11914 v -8.9375 l -0.1289,-0.11718 -0.39063,-0.53711 -0.26758,-0.60547 -0.14062,-0.65039 v -0.66211 l 0.14062,-0.65039 0.26758,-0.60352 0.38867,-0.53711 0.49219,-0.44531 0.57227,-0.33008 0.63086,-0.20312 0.6582,-0.0703 0.6543,0.0703 0.63086,0.20312 0.57226,0.33008 0.375,0.33984 h 18.0918 v -14.09765 l 9.42383,-55.39649 5.67188,-55.91211 z m -0.0996,0 -1.89453,56.16211 -5.67187,55.9082 -9.42383,55.39844 v 14.00781 h -17.95313 l -0.35546,-0.32031 -0.58985,-0.33984 -0.65039,-0.21289 -0.67578,-0.0703 -0.67969,0.0703 -0.65039,0.21289 -0.58984,0.33984 -0.50781,0.45703 -0.40235,0.55664 -0.27539,0.62305 -0.14453,0.66992 v 0.6836 l 0.14453,0.66992 0.27539,0.625 0.40235,0.55273 0.10351,0.0957 v 8.84961 l -0.10351,0.0957 -0.40235,0.55078 -0.27539,0.62695 -0.14453,0.66797 v 0.68555 l 0.14453,0.66797 0.27539,0.625 0.40235,0.55273 0.50781,0.46094 0.58984,0.33984 0.65039,0.21094 0.67969,0.0703 0.67578,-0.0703 0.65039,-0.21094 0.58985,-0.33984 0.35546,-0.32227 h 17.95313 l -0.0195,9.58985 -0.0664,0.65625 -0.25586,1.29883 -0.42384,1.25 -0.27148,0.60156 -0.66015,1.14453 -0.80078,1.04687 -0.44922,0.48438 -0.99218,0.87109 -0.53711,0.38282 -1.14258,0.66015 -1.2168,0.50781 -1.27148,0.3418 -1.30861,0.17188 -31.02342,0.0215 -1.37306,-0.0957 -1.34765,-0.2793 -0.65625,-0.20898 -1.26173,-0.54883 -1.17577,-0.7168 -0.54492,-0.41406 -1.00781,-0.94336 -0.86719,-1.06836 -0.71484,-1.17773 -0.54688,-1.26563 -0.20509,-0.6582 -0.28319,-1.34766 -0.0664,-0.68555 -0.0234,-26.50195 11.22656,-60.32812 6.76562,-61.00391 2.25782,-61.33398 -2.25782,-61.33594 -6.76562,-61 -11.22656,-60.332034 0.0195,-26.46875 0.17187,-1.31055 0.3418,-1.27539 0.5039,-1.2207 0.65821,-1.14453 0.80469,-1.04883 0.93164,-0.93555 1.04296,-0.80273 1.14454,-0.66211 1.21678,-0.50586 0.62891,-0.19141 1.29297,-0.25586 1.31445,-0.0879 h 30.36525 l 1.375,0.0957 0.67577,0.11914 1.32423,0.3711 1.26171,0.54883 1.17382,0.71679 1.06837,0.86914 0.93945,1.00782 0.79297,1.12695 0.33398,0.59961 0.55078,1.26562 0.36915,1.32618 0.18944,1.36718 0.004,9.61328 h -17.93555 l -0.35546,-0.31835 -0.58985,-0.3418 -0.65039,-0.21094 -0.67578,-0.0703 -0.67969,0.0703 -0.65038,0.21094 -0.58985,0.3418 -0.39063,0.33398 -0.51952,0.67773 -0.27735,0.625 -0.14258,0.66797 v 0.68555 l 0.14258,0.66797 0.27735,0.625 0.40234,0.55664 0.10351,0.0918 v 8.85156 l -0.10351,0.0937 -0.40234,0.55469 -0.27735,0.625 -0.14258,0.66796 v 0.68555 l 0.14258,0.66797 0.27735,0.625 0.40234,0.55273 0.50585,0.45899 0.59181,0.34375 0.65039,0.21094 0.67773,0.0684 0.67773,-0.0684 0.6504,-0.21094 0.58984,-0.34375 0.35546,-0.31836 h 17.94532 l 0.008,14.00391 9.42382,55.400394 5.67188,55.90429 z"
     id="path153" /></svg>
